<?xml version="1.0" encoding="utf-8"?>
<svg viewBox="0 0 186 179" xmlns="http://www.w3.org/2000/svg">
  <g transform="matrix(0.416314, 0, 0, 0.416314, 29.74375, 60.320328)" style="">
    <g>
      <path opacity="0.71" fill="#FD601D" d="M85.419,122.639c0,0,185.344-9.797,186.184-4.58c0.832,5.216,15.359,23.066-28.506,35.449 c-59.732,16.859-196.721-10.094-198.563-18.344C42.683,126.915,85.419,122.639,85.419,122.639z"/>
      <path opacity="0.2" fill="#CE0E8E" d="M183.913,135.869c-6.092,8.424-15.123,12.722-32.313,16.073 c-17.195,3.354-92.973-9.729-98.529-13.647c-5.557-3.917,5.043-11.097,5.043-11.097L183.913,135.869z"/>
      <g>
        <linearGradient id="SVGID_1_" gradientUnits="userSpaceOnUse" x1="-1773.1572" y1="-28.5757" x2="-1773.2339" y2="-8.5545" gradientTransform="matrix(-0.9908 0.1356 0.1356 0.9908 -1556.1825 336.7741)">
          <stop offset="0" style="stop-color:#FFC81B"/>
          <stop offset="0.285" style="stop-color:#FFC41B"/>
          <stop offset="0.5787" style="stop-color:#FFB71D"/>
          <stop offset="0.8754" style="stop-color:#FFA31F"/>
          <stop offset="1" style="stop-color:#FF9820"/>
        </linearGradient>
        <polygon fill="url(#SVGID_1_)" points="203.813,93.278 195.376,68.813 194.624,77.329 &#9;&#9;&#9;"/>
        <linearGradient id="SVGID_2_" gradientUnits="userSpaceOnUse" x1="-1763.0977" y1="-13.8584" x2="-1763.2183" y2="17.6258" gradientTransform="matrix(-0.9908 0.1356 0.1356 0.9908 -1556.1825 336.7741)">
          <stop offset="0" style="stop-color:#FFC81B"/>
          <stop offset="0.285" style="stop-color:#FFC41B"/>
          <stop offset="0.5787" style="stop-color:#FFB71D"/>
          <stop offset="0.8754" style="stop-color:#FFA31F"/>
          <stop offset="1" style="stop-color:#FF9820"/>
        </linearGradient>
        <path fill="url(#SVGID_2_)" d="M195.528,83.955c0,0,6.523,20.761,6.256,20.088c-0.27-0.676-5.871-12.152-5.871-12.152 l-1.787,7.41l2.82,9.075l-12.387,17.463L195.528,83.955z"/>
        <path fill="#FFC81B" d="M15.7,121.224c0.01,0.015,0.018,0.036,0.039,0.05c2.68,3.063,5.697,5.75,9.016,8.074 c7.105,4.986,15.568,8.3,24.994,10.096c1.313,0.25,2.615,0.445,3.92,0.576c1.316,0.146,2.639,0.23,3.951,0.266l3.814,0.467 l11.076,1.357l2.582,0.323l5.445,0.669l27.898,3.421l0.342,0.044l12.813,1.572h0.014l1.504,0.182l8.898,1.1l32.986-24.365 l-0.51-2.63v-0.007l-0.969-4.96l0,0l-6.896-35.419l-1.105-5.679l41.537-2.511l-11.258-33.816l-20.543-16.619L81.983,9.993 L80.87,9.852L69.72,8.475L69.495,8.65C39.696,5.844,4.458,34.313,1.901,69.274C0.198,92.54,5.528,109.594,15.7,121.224z"/>
        <linearGradient id="SVGID_3_" gradientUnits="userSpaceOnUse" x1="-1592.6699" y1="-308.4341" x2="-1593.0852" y2="-200.0313" gradientTransform="matrix(-1 -0.0025 -0.0025 1 -1503.6787 314.04)">
          <stop offset="0" style="stop-color:#FFAA1B"/>
          <stop offset="0.2736" style="stop-color:#FFA61B"/>
          <stop offset="0.5555" style="stop-color:#FF991D"/>
          <stop offset="0.8403" style="stop-color:#FF851F"/>
          <stop offset="1" style="stop-color:#FF7620"/>
        </linearGradient>
        <path fill="url(#SVGID_3_)" d="M8.407,94.908c2.025,11.493,6.506,20.702,12.893,27.836c0.01,0.015,0.025,0.026,0.039,0.045 c2.686,2.99,5.705,5.607,9.021,7.875c7.1,4.86,15.57,8.091,25.002,9.846c1.299,0.243,2.609,0.425,3.908,0.56 c1.32,0.142,2.637,0.227,3.955,0.262l3.816,0.453l11.072,1.328l2.582,0.314l5.447,0.647l27.898,3.341l0.344,0.035l12.811,1.541 h0.012l1.502,0.177l8.9,1.067l32.988-23.755l-0.518-2.56v-0.006l-0.963-4.84l0,0l-4.293-21.498l-2.605-13.039l-1.105-5.534 l-6.615-33.096l17.953-14.035L149.71,21.95l-0.037-0.187l-62.09-7.48l-1.117-0.134l-11.152-1.342l-0.221,0.169 C45.296,10.241,10.06,37.995,7.501,72.081C6.878,80.512,7.212,88.109,8.407,94.908z"/>
        <path opacity="0.2" fill="#CE0E8E" d="M16.847,114.826c0.725,3.046,3.289,4.883,4.385,7.684c0.004,0.005,0.021,0.089,0.068,0.234 c0.01,0.015,0.025,0.026,0.039,0.045c2.686,2.99,5.705,5.607,9.021,7.875c7.1,4.86,15.57,8.091,25.002,9.846 c1.299,0.243,2.609,0.425,3.908,0.56c-10.887-7.992-27.902-19.826-28.836-22.203c-1.094-2.799-6.088-11.927-6.813-14.971 c-2.094-8.801-1.121-10.102-1.695-20.541c-1.92-34.742,9.242-48.053,42.588-60.189c-21.906,6.289-46.107,34.344-50.756,64.033 C12.134,97.53,14.755,106.027,16.847,114.826z"/>
        <path opacity="0.2" fill="#CE0E8E" d="M66.101,114.649c0.725,3.043,1.648,5.975,2.744,8.777c3.066,7.849,7.01,14.57,11.852,20 l51.311,5.994c-6.676-6.018-48.254-17.497-51.818-26.635c-1.092-2.803-6.164-5.451-6.887-8.499 c-2.088-8.802-4.707-25.362-3.09-35.698c4.336-27.697,7.23-49.621,39.16-55.316C87.47,29.563,69.808,56.094,65.159,85.786 C63.548,96.116,64.007,105.847,66.101,114.649z"/>
        <path opacity="0.2" fill="#CE0E8E" d="M18.231,88.001c-0.066,0.008-0.113-0.01-0.156-0.017c-0.066-0.025-0.285-0.132-0.258-0.477 l0.652,0.051c-0.008-0.037-0.037-0.119-0.125-0.176c-0.088-0.055-0.184-0.035-0.219-0.021c0.502-0.256,3.254-4.128,5.633-7.734 l0.545,0.363C19.665,87.02,18.604,87.94,18.231,88.001z M18.144,87.535l0.326,0.034c0,0,0-0.005,0-0.01L18.144,87.535z"/>
        <polygon opacity="0.2" fill="#CE0E8E" points="22.116,107.695 21.579,103.757 41.015,88.268 41.743,89.709 &#9;&#9;&#9;"/>
        <polygon opacity="0.2" fill="#CE0E8E" points="20.272,115.338 21.329,109.594 37.423,101.223 38.153,102.661 &#9;&#9;&#9;"/>
        <polygon opacity="0.2" fill="#CE0E8E" points="77.497,136.897 81.155,143.477 59.163,129.781 60.429,128.843 &#9;&#9;&#9;"/>
        <polygon opacity="0.2" fill="#CE0E8E" points="73.956,129.594 74.188,134.466 58.175,111.507 59.435,110.573 &#9;&#9;&#9;"/>
        <path fill="#FB5D1E" d="M179.536,106.961c-0.328,0.953-0.137,0.6,0.895-1.912c0.35-0.854,0.645-1.838,0.879-2.921 c-0.828,2.21-1.486,4.001-1.773,4.825C179.536,106.958,179.536,106.958,179.536,106.961z"/>
        <radialGradient id="gradient-1" cx="-1719.9189" cy="-10.2944" r="71.8024" gradientTransform="matrix(-0.9908 0.1356 0.1356 0.9908 -1556.1825 336.7741)" gradientUnits="userSpaceOnUse">
          <stop offset="0" style="stop-color:#FD601D"/>
          <stop offset="0.5234" style="stop-color:#FD621D"/>
          <stop offset="0.7119" style="stop-color:#FD691C"/>
          <stop offset="0.8463" style="stop-color:#FE741B"/>
          <stop offset="0.9541" style="stop-color:#FF851A"/>
          <stop offset="1" style="stop-color:#FF8F19"/>
        </radialGradient>
        <path fill="url(#gradient-1)" d="M82.474,108.083c0.809,2.86,1.838,5.613,3.066,8.238c8.041,17.295,24.564,29.533,43.734,33.088 c5.787,1.081,11.563,1.094,17.162,0.171c3.053-0.507,6.053-1.286,8.975-2.331c6.1-2.17,11.861-5.465,17.059-9.711 c8.023-6.541,14.678-15.342,19.125-25.707c2.107-4.887,3.715-10.133,4.742-15.653c2.33-12.542,1.334-24.82-2.299-35.681 l-0.463-1.348c-0.924-2.572-1.998-5.065-3.215-7.461l-1.402-2.604c-7.828-13.77-21.021-20.894-36.594-23.783 c-8.305-1.547-16.871-0.721-25.061,2.012l2.25,7.143l-4.223-6.448c-2.916,1.081-5.777,2.407-8.559,3.952l7.648,11.753 l-0.172,1.181L112.29,34.69C97.071,44.784,85.024,61.538,81.409,80.987C79.604,90.688,80.13,99.82,82.474,108.083z"/>
        <path opacity="0.2" fill="#CE0E8E" d="M96.495,111.961c0.563,3.911,16.111,16.328,17.777,17.42 c3.33,2.205,7.014,4.938,10.824,5.846c3.813,0.908,20.191,3.688,23.998,2.941c3.799-0.732,7.533-1.883,11.078-3.491 c3.543-1.61,6.893-3.651,9.908-6.098c6.068-4.906,10.74-11.407,13.635-18.579c2.896-7.179,7.09-19.394,6.512-27.082 c-0.563-7.681-6.836-14.811-11.098-21.25c-0.99-1.498-2.088-2.937-3.277-4.295l-0.004-0.014l-0.008-0.008 c-1.342-1.533-2.801-2.969-4.371-4.275c-2.936-2.483-6.256-4.479-9.775-6.016c-7.029-3.061-14.479-6.762-22.035-6.426 c-7.582,0.303-15.311,4.581-22.467,6.9c3.627-1.02,7.291-1.881,11.006-2.48c1.854-0.289,3.717-0.539,5.576-0.719 c1.871-0.164,3.736-0.266,5.617-0.286c3.742-0.05,7.482,0.249,11.146,0.935c3.654,0.688,7.236,1.777,10.596,3.352 c1.598,0.73,3.137,1.576,4.615,2.525l0.236,0.15c4.643,3.016,8.619,7.014,11.566,11.682c1.965,3.107,3.492,6.488,4.582,10.008 c0.543,1.777,0.98,3.6,1.297,5.43c0.33,1.787,0.537,3.586,0.652,5.396c0.01,0.124,0.014,0.241,0.014,0.365 c0.27,5.049-0.266,10.139-1.576,15.017c-0.549,2.101-1.254,4.147-2.09,6.14c-0.281,0.662-0.57,1.293-0.895,1.908c0,0,0,0,0,0.004 c-2.973,5.758-7.721,10.02-12.869,14.109c-3.127,2.502-6.381,4.919-9.873,6.809c-1.473,0.8-2.979,1.498-4.543,2.074 c-1.482,0.545-3.012,0.978-4.588,1.267c-1,0.187-1.994,0.33-3.008,0.466c-2.629,0.322-5.275,0.471-7.934,0.443 c-3.67-0.029-6.432-2.627-9.949-3.475c-2.021-0.492-4.293-0.408-6.416-0.629c-1.566-0.16-3.053-0.482-4.303-1.32 c-1.477-0.986-2.84-2.129-4.063-3.386c-1.211-1.278-2.283-2.681-3.199-4.193c-1.824-3.017-2.98-6.455-3.5-9.993 c-0.529-3.545-0.455-7.191,0.105-10.77c0.561-3.581,1.588-7.098,3.039-10.429c1.455-3.329,3.297-6.501,5.551-9.335 c2.248-2.832,4.91-5.348,7.93-7.264c3.018-1.92,6.406-3.23,9.93-3.651c1.762-0.21,3.547-0.224,5.311-0.013 c0.887,0.1,1.77,0.249,2.635,0.455c0.883,0.204,1.779,0.443,2.652,0.701c1.422,0.424,2.82,0.933,4.154,1.521l0.01,0.005 c1.965,0.864,3.82,1.933,5.449,3.267c1.365,1.129,2.551,2.446,3.455,3.938c0.656,1.078,1.152,2.242,1.482,3.465 c0.127,0.469,0.227,0.938,0.297,1.417c0.078,0.44,0.125,0.896,0.146,1.341c0.201,3.074-0.561,6.229-1.871,9.1 c-0.752,1.648-1.693,3.234-2.779,4.713c-1.078,1.471-2.291,2.852-3.639,4.1c-0.652,0.597-1.326,1.162-2.037,1.692l-0.033,0.019 c-0.746,0.566-1.533,1.068-2.354,1.535c-0.293,0.156-0.59,0.249-0.898,0.262h-0.004c-1.373,0.111-2.865-0.889-4.324-0.677 c-0.742,0.112-1.408,1.696-2.119,2.153c-0.145,0.092-0.289,0.144-0.436,0.125c-0.061-0.014-0.102-0.054-0.127-0.135 c-0.16-0.465,0.285-2.031-0.092-2.146c-0.416-0.124-1.953,1.682-2.385,1.526c-1.734-0.681-3.438-1.464-5.02-2.45 c-1.57-0.969-3.047-2.154-4.086-3.705c-0.496-0.777-0.861-1.646-0.994-2.569c-0.105-0.92,0.008-1.887,0.434-2.726 c-0.469,0.819-0.635,1.788-0.564,2.74c0.076,0.95,0.412,1.877,0.889,2.707c0.486,0.824,1.104,1.564,1.783,2.237 c0.695,0.661,1.449,1.253,2.232,1.782c0,0,0.021,0.01,0.045,0.033c0.369,0.252,0.768,0.498,1.152,0.73 c0.037,0.02,0.07,0.045,0.102,0.063c1.203,0.715,2.459,1.33,3.73,1.891c0.43,0.184,0.854,0.381,1.328,0.55 c0.465,0.161,0.951,0.286,1.439,0.366c0.973,0.176,1.969,0.188,2.945,0.084c1.734-0.201,3.396-0.743,4.963-1.479 c0.195-0.093,0.389-0.191,0.58-0.281c0.561-0.29,1.338-0.484,2.199-0.653c0.832-0.172,1.74-0.318,2.57-0.508 c0.996-0.226,1.9-0.521,2.449-0.988c2.926-2.526,2.926-6.73,4.652-10.236c0.855-1.75,1.52-3.604,1.924-5.541 c0.262-1.273,2.451-2.792,3.838-4.254c0.723-0.756,1.223-1.496,1.137-2.18c-0.264-1.999-5.631-3.473-6.639-5.227 c-0.451-0.779-0.967-1.525-1.545-2.221c-0.701-0.863-1.49-1.658-2.326-2.369c-3.047-2.605-5.707-7.095-9.385-8.283 c-0.922-0.297-2.82,2.268-3.768,2.021c-0.957-0.238,1.152-2.18,0.16-2.312c-1.961-0.264-7.051,1.452-9.039,1.677 c-3.291,0.354-6.484,1.403-9.4,2.936c-0.59,0.311-1.178,0.654-1.746,0.998c-0.434,0.278-0.93,0.539-1.469,0.817 c-3.451,1.721-8.727,3.505-11.117,5.913c-0.152,0.148-0.287,0.302-0.412,0.453c-0.391,0.479-0.738,0.978-1.064,1.48 c-3.703,5.865-2.895,13.227-4.049,20.318C101.647,101.727,95.929,108.059,96.495,111.961z"/>
        <g>
          <linearGradient id="gradient-2" gradientUnits="userSpaceOnUse" x1="-1607.5459" y1="-266.8145" x2="-1584.5674" y2="-266.8145" gradientTransform="matrix(-1 -0.0025 -0.0025 1 -1503.6787 314.04)">
            <stop offset="0" style="stop-color:#FFC81B"/>
            <stop offset="0.285" style="stop-color:#FFC41B"/>
            <stop offset="0.5787" style="stop-color:#FFB71D"/>
            <stop offset="0.8754" style="stop-color:#FFA31F"/>
            <stop offset="1" style="stop-color:#FF9820"/>
          </linearGradient>
          <polygon fill="url(#gradient-2)" points="102.858,58.158 104.522,55.669 81.892,44.27 81.571,44.911 &#9;&#9;&#9;&#9;"/>
          <linearGradient id="gradient-3" gradientUnits="userSpaceOnUse" x1="-1596.5654" y1="-254.7349" x2="-1586.4795" y2="-254.7349" gradientTransform="matrix(-1 -0.0025 -0.0025 1 -1503.6787 314.04)">
            <stop offset="0" style="stop-color:#FFC81B"/>
            <stop offset="0.285" style="stop-color:#FFC41B"/>
            <stop offset="0.5787" style="stop-color:#FFB71D"/>
            <stop offset="0.8754" style="stop-color:#FFA31F"/>
            <stop offset="1" style="stop-color:#FF9820"/>
          </linearGradient>
          <polygon fill="url(#gradient-3)" points="93.206,65.094 93.522,63.691 83.753,61.473 83.438,62.875 &#9;&#9;&#9;&#9;"/>
          <linearGradient id="gradient-4" gradientUnits="userSpaceOnUse" x1="-1588.0293" y1="-219.2959" x2="-1571.4141" y2="-219.2959" gradientTransform="matrix(-1 -0.0025 -0.0025 1 -1503.6787 314.04)">
            <stop offset="0" style="stop-color:#FFC81B"/>
            <stop offset="0.285" style="stop-color:#FFC41B"/>
            <stop offset="0.5787" style="stop-color:#FFB71D"/>
            <stop offset="0.8754" style="stop-color:#FFA31F"/>
            <stop offset="1" style="stop-color:#FF9820"/>
          </linearGradient>
          <polygon fill="url(#gradient-4)" points="68.286,97.771 84.896,100.023 84.899,97.405 68.286,97.368 &#9;&#9;&#9;&#9;"/>
          <linearGradient id="SVGID_8_" gradientUnits="userSpaceOnUse" x1="-1588.0811" y1="-213.9639" x2="-1581.335" y2="-213.9639" gradientTransform="matrix(-1 -0.0025 -0.0025 1 -1503.6787 314.04)">
            <stop offset="0" style="stop-color:#FFC81B"/>
            <stop offset="0.285" style="stop-color:#FFC41B"/>
            <stop offset="0.5787" style="stop-color:#FFB71D"/>
            <stop offset="0.8754" style="stop-color:#FFA31F"/>
            <stop offset="1" style="stop-color:#FF9820"/>
          </linearGradient>
          <polygon fill="url(#SVGID_8_)" points="78.288,104.848 84.937,104.036 84.833,103.227 78.19,104.042 &#9;&#9;&#9;&#9;"/>
          <linearGradient id="SVGID_9_" gradientUnits="userSpaceOnUse" x1="-1588.1465" y1="-211.0547" x2="-1581.2617" y2="-211.0547" gradientTransform="matrix(-1 -0.0025 -0.0025 1 -1503.6787 314.04)">
            <stop offset="0" style="stop-color:#FFC81B"/>
            <stop offset="0.285" style="stop-color:#FFC41B"/>
            <stop offset="0.5787" style="stop-color:#FFB71D"/>
            <stop offset="0.8754" style="stop-color:#FFA31F"/>
            <stop offset="1" style="stop-color:#FF9820"/>
          </linearGradient>
          <polygon fill="url(#SVGID_9_)" points="78.349,108.368 84.997,106.302 84.759,105.526 78.108,107.586 &#9;&#9;&#9;&#9;"/>
          <path fill="#FFC81B" d="M11.188,33.396l0.297-0.278c1.805,1.98,3.867,4.088,4.197,4.191c-0.021-0.002-0.084-0.002-0.133,0.04 c-0.053,0.038-0.063,0.092-0.063,0.12l0.395-0.1c0.053,0.213-0.072,0.298-0.113,0.319c-0.02,0.011-0.051,0.025-0.086,0.025 C15.44,37.714,14.704,37.247,11.188,33.396z M15.487,37.469c0,0,0,0,0,0.004l0.199-0.055L15.487,37.469z"/>
          <polygon fill="#FFC81B" points="12.101,44.612 12.415,43.657 1.741,40.074 1.437,41.031 &#9;&#9;&#9;&#9;"/>
          <polygon fill="#FFC81B" points="15.55,52.202 15.866,51.249 5.198,47.663 4.882,48.62 &#9;&#9;&#9;&#9;"/>
          <polygon fill="#FFC81B" points="76.233,12.038 78.96,1.039 76.438,0.715 73.71,11.718 &#9;&#9;&#9;&#9;"/>
          <rect x="71.424" y="0.801" fill="#FFC81B" width="0.408" height="11.006"/>
          <polygon fill="#FFC81B" points="56.458,12.804 56.853,12.702 55.206,6.211 54.819,6.311 &#9;&#9;&#9;&#9;"/>
        </g>
        <path opacity="0.36" fill="#CE0E8E" d="M181.31,102.128c0.379-0.999,0.783-2.091,1.211-3.219 c1.346-4.991,1.873-10.209,1.563-15.382c-0.227-3.669-0.875-7.316-1.949-10.832c-1.09-3.514-2.617-6.895-4.582-10.002 c-2.947-4.668-6.924-8.666-11.566-11.682l-0.236-0.15C178.628,61.643,184.104,89.233,181.31,102.128z"/>
        <path opacity="0.36" fill="#CE0E8E" d="M125.446,128.409c-7.498-0.832-19.594-17.679-20.49-22.832 c-0.885-5.148,6.926-24.045,6.926-24.045s-12.791,16.615-5.357,32.723C113.966,130.355,125.446,128.409,125.446,128.409z"/>
        <path opacity="0.36" fill="#CE0E8E" d="M152.788,97.594c1.086-1.479,2.027-3.064,2.779-4.713c1.311-2.871,2.072-6.025,1.871-9.1 c-0.021-0.445-0.068-0.9-0.146-1.341c-0.07-0.479-0.17-0.948-0.297-1.417c-0.33-1.223-0.826-2.387-1.482-3.465 c-0.904-1.491-2.09-2.809-3.455-3.938c-1.629-1.334-3.484-2.402-5.449-3.267C153.194,73.5,158.813,89.012,152.788,97.594z"/>
        <path opacity="0.36" fill="#CE0E8E" d="M122.843,92.897c-0.014,5.207,3.141,9.541,7.318,10.465 c-2.457-1.906-4.078-5.191-4.072-8.924c0.014-5.871,4.051-10.617,9.01-10.609c0.561,0,1.107,0.064,1.637,0.181 c-1.404-1.079-3.08-1.714-4.879-1.718C126.89,82.277,122.856,87.025,122.843,92.897z"/>
        <path fill="#FFC81B" d="M115.626,17.663C102.101,19.034,81.81,32.089,81.81,32.089l-18.354-2.532l-5.908,2.88l2.443-4.868 l-4.857-3.125c0,0-20.346,2.089-30.637,9.48c-10.289,7.389,3.033-9.547,17.045-15.669c14.014-6.126,24.254-9.083,33.467-7.993 C84.224,11.357,115.626,17.663,115.626,17.663z"/>
        <path fill="#FFC81B" d="M153.683,22.737c10.342,2.828-35.031,3.928-35.031,3.928l-19.287,8.251l-1.941-2.017l3.512-3.426 c0,0,10.23-8.879,17.514-10.051c7.285-1.172,9.018-1.063,9.27-1.269C127.968,17.942,147.673,21.091,153.683,22.737z"/>
      </g>
      <polygon fill="#FFBE1D" points="95.966,154.35 89.448,136.937 93.835,153.9 92.896,153.868 80.204,125.033 77.097,125.456 &#10;&#9;&#9;&#9;84.233,153.417 78.103,151.858 54.396,147.139 46.829,126.87 51.886,146.321 &#9;&#9;"/>
    </g>
    <polygon fill="#FFBE1D" points="209.591,161.055 208.118,143.301 207.964,161.276 203.972,160.733 202.208,147.854 &#10;&#9;&#9;199.358,149.401 201.265,163.285 &#9;"/>
  </g>
  <circle fill="#F0B90B" cx="67.93" cy="38.509" r="38.159" style=""/>
  <path fill="#FFFDFA" d="M 53.699 38.509 L 47.861 44.388 L 41.982 38.509 L 47.861 32.629 L 53.699 38.509 Z M 67.93 24.279 L 77.986 34.335 L 83.865 28.455 L 73.81 18.44 L 67.93 12.56 L 52.036 28.453 L 57.915 34.332 L 67.93 24.279 Z M 87.999 32.629 L 82.16 38.509 L 88.04 44.388 L 93.879 38.509 L 87.999 32.629 Z M 67.93 52.74 L 57.876 42.684 L 52.038 48.563 L 67.93 64.457 L 83.863 48.524 L 77.984 42.685 L 67.93 52.74 Z M 67.93 44.388 L 73.81 38.509 L 67.93 32.629 L 62.051 38.509 L 67.93 44.388 Z" style=""/>
  <circle opacity="0.1" fill="none" stroke="#191326" stroke-width="3" enable-background="new    " cx="67.93" cy="38.509" r="36.184" style=""/>
  <g>
    <defs>
      <circle id="SVGID_4_" cx="125.5" cy="72.5" r="43.5"/>
    </defs>
    <circle cx="125.5" cy="72.5" r="43.5" transform="matrix(1, 0, 0, 1, 0, 0)" overflow="visible" fill="#006838"/>
    <clipPath id="SVGID_5_">
      <circle cx="125.5" cy="72.5" r="43.5" transform="matrix(1, 0, 0, 1, 0, 0)" overflow="visible"/>
    </clipPath>
    <g clip-path="url(#SVGID_5_)">
      <g>
        <path opacity="0.21" d="M154.574,224.168c-0.016,0.048-0.035,0.096-0.058,0.145c-0.349,0.76-1.199,1.107-1.978,1.365 c-2.664,0-6.119,1.744-8.806,2.259c-3.12,0.598-6.278,1.012-9.448,1.222c-6.389,0.421-12.901-0.544-19.273-1.023 c-1.846-0.14-3.954-0.186-5.243,1.144c1.998,1.276,3.996,2.554,5.993,3.831c-6.479,2.569-13.696,2.209-20.655,1.809 c-5.603-0.322-11.206-0.644-16.809-0.967c-7.055-0.405-14.277-0.85-20.766-3.648c-0.546-0.234-1.189-0.725-0.968-1.275 c0.097-0.241,0.337-0.389,0.563-0.514c7.64-4.232,17.17-2.779,25.475-5.482c-1.629-0.736-3.135-1.749-4.432-2.982 c3.173-2.191,7.314-2.194,11.171-2.115c17.58,0.355,34.979,0.904,52.474,2.781c2.629,0.281,5.257,0.625,7.855,1.127 C150.803,222.062,155.174,222.363,154.574,224.168z"/>
        <g>
          <g>
            <path fill="#E2B249" d="M121.045,210.698c0.271,2.705,0.729,5.531-0.089,8.089c-0.158,0.496-0.389,0.961-0.573,1.445 c-0.51,1.327-0.557,3.021-0.372,4.453c7.22-0.057,14.521,1.646,21.609,0.205c0.212-0.043,0.442-0.102,0.569-0.292 c0.101-0.15,0.11-0.351,0.106-0.538c-0.044-1.545-1.086-3.223-2.46-3.723c-1.762-0.641-3.392,0.52-4.87-0.988 c-0.773-0.788-1.546-1.663-2.59-1.989c-0.313-0.099-0.644-0.143-0.943-0.28c-0.3-0.134-0.577-0.392-0.618-0.725 c-0.048-0.379,0.219-0.771,0.089-1.13c-0.119-0.329-0.504-0.455-0.744-0.706c-0.357-0.375-0.345-0.967-0.309-1.489 c0.043-0.634,0.088-1.266,0.131-1.898"/>
            <path opacity="0.29" fill="#E2B249" d="M121.056,210.662c0.272,2.706,0.729,5.531-0.089,8.088 c-0.158,0.497-0.388,0.963-0.573,1.446c-0.509,1.328-0.556,3.021-0.371,4.452c3.028-0.023,6.049,0.262,9.065,0.495 c1.523,0.115,3.048,0.222,4.574,0.268c0.743,0.022,1.485,0.03,2.229,0.02c0.63-0.009,1.253,0.048,1.784-0.337 c0.183-0.131,0.37-0.269,0.483-0.462c0.234-0.399,0.085-0.933-0.226-1.274s-0.749-0.536-1.172-0.719 c0.119-0.336,0.57-0.521,0.566-0.878c-0.002-0.269-0.267-0.447-0.5-0.578c-1.044-0.583-2.17-1.187-3.359-1.08 c-0.914,0.081-1.739,0.571-2.636,0.762c-0.232,0.049-0.508,0.066-0.678-0.101c0.314-0.588,0.745-1.111,1.26-1.533 c-0.625,0.223-1.25,0.445-1.876,0.668c-1.096,0.391-2.2,0.783-3.353,0.947c0.876-1.338,2.184-2.391,3.678-2.96 c0.323-0.123,1.009-0.317,0.892-0.753c-0.18-0.665,0.379-1.336,0.159-1.942c-0.119-0.329-0.504-0.456-0.744-0.707 c-0.357-0.375-0.345-0.968-0.31-1.488c0.044-0.634,0.088-1.267,0.132-1.899"/>
            <path fill="#332914" d="M120.024,223.756c-0.224,0.683-0.387,1.594,0.159,2.015c0.242,0.187,0.557,0.205,0.852,0.214 c1.744,0.048,3.491-0.055,5.233,0.037c1.066,0.057,2.13,0.186,3.191,0.313c0.683,0.082,1.364,0.164,2.047,0.247 c0.329,0.04,0.663,0.079,0.989,0.024c0.544-0.092,1.088-0.443,1.612-0.252c0.318,0.115,0.559,0.414,0.875,0.539 c0.721,0.287,1.5-0.414,2.248-0.236c0.308,0.072,0.579,0.289,0.891,0.334c0.702,0.098,1.275-0.693,1.981-0.707 c0.396-0.008,0.767,0.236,1.162,0.27c0.519,0.047,1.044-0.309,1.234-0.837c0.19-0.527,0.032-1.183-0.374-1.542 C134.642,225.438,127.521,225.066,120.024,223.756z"/>
          </g>
          <g>
            <path fill="#E2B249" d="M107.387,223.72c-5.739,0.905-11.602,1.302-17.448,1.178c-0.249-0.005-0.517-0.018-0.707-0.146 c-0.189-0.13-0.404-0.138-0.179-0.219c0.022-0.905,0.047-1.824,0.373-2.69c0.327-0.865,1-1.689,2.011-2.082 c1.307-0.509,3.095-0.301,3.999-1.215c0.551-0.558,0.585-1.389,1.236-1.869c0.288-0.215,0.682-0.344,0.887-0.613 c0.271-0.354,0.118-0.81-0.042-1.205c-0.335-0.828-0.671-1.657-1.007-2.486c-0.242-0.6-0.315-0.656-0.393-1.285 c3.856-0.094,7.718-0.041,11.568,0.16c-0.312,0.813-0.622,1.628-0.933,2.441c-0.13,0.341-0.262,0.696-0.201,1.049 c0.063,0.379,0.341,0.716,0.439,1.091c0.13,0.491-0.06,0.995-0.177,1.487c-0.304,1.275-0.136,2.59,0.034,3.881 C106.97,222.109,107.266,222.807,107.387,223.72z"/>
            <path fill="#332914" d="M102.061,226.117c1.014,0.162,3.149-0.48,4.144-0.667c0.294-0.056,0.599-0.114,0.833-0.269 c0.636-0.416,0.417-1.224,0.142-1.846c-5.395,0.93-10.919,1.369-16.434,1.309c-0.679-0.008-1.517-0.112-1.729-0.633 c0.174,0.365,0.022,0.77-0.019,1.158s0.113,0.865,0.58,0.971c0.966,0.215,2.16-0.158,3.142,0.098 c0.296,0.077,0.576,0.227,0.888,0.218c0.492-0.013,0.861-0.413,1.353-0.442c0.653-0.037,1.264,0.594,1.854,0.363 c0.229-0.092,0.365-0.293,0.587-0.396c0.426-0.195,0.943,0.039,1.364,0.242c0.42,0.201,1.016,0.363,1.352,0.075 c0.153-0.131,0.205-0.327,0.376-0.443C100.924,225.563,101.508,226.022,102.061,226.117z"/>
            <path fill="#726658" d="M103.597,220.672c0.637-0.213,0.614-1.02,0.111-1.397c-0.503-0.38-1.25-0.439-1.938-0.46 c-1.563-0.045-3.557-0.156-5.003,0.221C97.826,219.378,102.626,220.996,103.597,220.672z"/>
          </g>
          <g>
            <g>
              <path fill="#BE1E2D" d="M141.463,146.583c-1.053,3.612-2.114,7.308-1.952,11.072c0.047,1.073,0.193,2.152,0.057,3.218 c-0.204,1.59-1.015,3.017-1.62,4.494c-1.363,3.329-1.696,7.09-0.942,10.615c0.302,1.408,0.775,2.805,0.732,4.247 c-0.052,1.8-0.896,3.456-1.575,5.118c-1.68,4.109-3.988,11.207-1.298,15.08c0.382,0.55,0.749,1.129,0.976,1.762 c0.115,0.324,0.2,0.66,0.217,1.003c0.005,0.134,0.046,0.443-0.031,0.558c-0.067,0.102-0.221,0.066-0.279,0.18 c-0.05,0.1-0.024,0.218-0.003,0.328c0.162,0.854-0.066,1.773-0.609,2.452c-0.266,0.333-0.6,0.604-0.864,0.937 c-0.266,0.332-0.464,0.755-0.391,1.172c0.145,0.822,1.263,1.379,1.053,2.186c-0.073,0.279-0.308,0.527-0.265,0.813 c0.031,0.202,0.193,0.354,0.296,0.531c0.216,0.375,0.14,0.869-0.1,1.231c-0.528,0.803-1.568,0.977-2.433,1.197 c-1.07,0.273-2.164,0.448-3.263,0.554c-2.116,0.203-4.247,0.148-6.365,0.021c-1.354-0.08-2.812-0.616-4.154-0.342 c1.234-0.507,0.01-1.929,0.763-2.926c0.199-0.262,0.474-0.485,0.564-0.803c0.213-0.74-0.668-1.366-0.736-2.135 c-0.097-1.092,1.433-1.793,1.384-2.889c-0.047-1.074-1.519-1.513-1.889-2.523c-0.212-0.577-0.016-1.217,0.18-1.801 c2.639-7.877,3.051-16.87,3.933-25.107c0.148-1.389,0.289-2.793,0.105-4.178c-0.072-0.536-0.192-1.068-0.187-1.609 c0.008-0.758,0.261-1.486,0.463-2.215c0.987-3.57,0.579-7.231,1.396-10.783c0.069-0.299,0.146-0.601,0.122-0.906 c-0.038-0.47-0.34-0.907-0.758-1.104c-1.657,1.863-2.593,3.334-3.11,5.794c-1.009,4.803-2.019,9.606-3.027,14.409 c-0.64,3.044-1.284,6.152-0.966,9.249c0.168,1.647,0.45,3.688-0.89,4.617c-0.319,0.221-0.702,0.345-0.985,0.612 c-0.474,0.445-0.557,1.162-0.632,1.816c-0.31,2.708-0.976,5.373-1.971,7.9c-0.651,1.656-2.935,3.976-2.466,5.871 c0.167,0.676,0.7,1.186,1.089,1.761c0.39,0.575,0.625,1.393,0.189,1.933c-0.406,0.503-1.318,0.692-1.294,1.338 c0.022,0.625,0.961,0.863,1.065,1.479c0.079,0.467-0.382,0.859-0.84,0.984c-0.457,0.125-0.953,0.094-1.391,0.274 c0.063,0.519,0.126,1.038,0.188,1.558c-4.443,0.382-8.922,0.361-13.361-0.061c0.842,0.005,1.343-1.031,1.2-1.861 c-0.144-0.83-0.686-1.527-1.042-2.29c-0.106-0.227-0.198-0.472-0.174-0.722c0.077-0.782,2.11-2.171,2.593-2.943 c0.472-0.757,0.19-1.76-0.262-2.529c-0.451-0.77-1.068-1.465-1.292-2.329c-0.578-2.224,1.266-3.35,2.171-5.001 c0.857-1.563,1.404-4.232,0.863-5.958c-0.213-0.681-0.6-1.322-0.619-2.036c-0.017-0.557,0.193-1.092,0.414-1.602 c1.461-3.369,3.606-6.691,3.366-10.369c-0.052-0.791-0.216-1.571-0.258-2.363c-0.059-1.131,0.132-2.258,0.322-3.373 c1.594-9.336,3.188-18.672,4.782-28.008c10.973,3.622,22.926,2.451,34.234,0.151 C141.722,144.936,141.637,145.983,141.463,146.583z"/>
            </g>
          </g>
          <g opacity="0.21">
            <g>
              <path fill="#004456" d="M132.393,152.009c0.39,0.138,0.861,0.127,1.282,0.073c0.663-0.084,1.396-0.211,1.954,0.156 c-0.696,0.807-1.506,1.514-2.399,2.093c0.522-0.339,1.696,1.415,1.779,1.822c0.247,1.216-0.608,2.441-1.236,3.396 c-2.934,4.463-5.374,9.238-5.417,14.703c-0.003,0.41,0.014,0.84,0.214,1.197c0.652,1.161,2.369-0.021,3.328-0.047 c0.514-0.014,1.098,0.131,1.342,0.583c0.536,0.992-0.999,1.866-1.254,2.966c0.668-0.041,1.284-0.371,1.941-0.501 c0.657-0.128,1.475,0.036,1.734,0.653c0.239,0.565-0.106,1.197-0.461,1.698c-3.025,4.277-7.546,7.256-10.959,11.229 c-0.384,0.447-0.777,1.011-0.611,1.576c0.282,0.964,1.66,0.824,2.646,0.637c1.429-0.271,2.922-0.193,4.314,0.225 c-0.683,1.173-1.483,2.277-2.387,3.291c1.294-0.418,2.674-0.567,4.026-0.434c-0.21,0.992-1.095,1.677-1.935,2.242 c-2.809,1.891-5.821,3.477-8.969,4.723c1.774,1.205,3.996,1.609,6.14,1.527c2.144-0.08,4.241-0.611,6.321-1.141 c-0.058,0.813-0.997,1.209-1.781,1.428c-2.391,0.665-4.781,1.33-7.171,1.996c1.571,0.16,3.142,0.321,4.713,0.481 c1.144,0.117,3.271,0.23,4.235,0.956c0.905,0.684,0.659,1.902,1.179,2.809c0.216,0.375,0.14,0.869-0.1,1.231 c-0.528,0.803-1.568,0.977-2.433,1.197c-1.07,0.273-2.164,0.448-3.263,0.554c-2.116,0.203-4.247,0.148-6.365,0.021 c-1.354-0.08-2.812-0.616-4.154-0.342c1.234-0.507,0.01-1.929,0.763-2.926c0.199-0.262,0.474-0.485,0.564-0.803 c0.213-0.74-0.668-1.366-0.736-2.135c-0.097-1.092,1.433-1.793,1.384-2.889c-0.047-1.074-1.519-1.513-1.889-2.523 c-0.212-0.577-0.016-1.217,0.18-1.801c2.639-7.877,3.051-16.87,3.933-25.107c0.148-1.389,0.289-2.793,0.105-4.178 c-0.072-0.536-0.192-1.068-0.187-1.609c0.008-0.758,0.261-1.486,0.463-2.215c0.648-2.348,0.69-4.791,0.891-7.203 c0.137-1.65,1.278-4.349-0.175-5.639c2.807-1.098,5.465-2.574,7.881-4.375C131.971,151.802,132.168,151.93,132.393,152.009z"/>
            </g>
          </g>
          <g opacity="0.2">
            <g>
              <path fill="#004456" d="M102.871,172.08c0.723-4.227,1.443-8.453,2.165-12.68c0.361-2.112,0.618-4.241,0.975-6.354 c0.279-1.654,1.213-3.33,1.312-4.98c-0.194,3.234-0.196,6.475-0.338,9.712c-0.137,3.124-0.727,6.172-0.573,9.339 c0.032,0.643,0.246,1.467,0.888,1.52c0.262,0.021,0.511-0.107,0.743-0.232c1.288-0.697,2.576-1.393,3.865-2.09 c0.361,0.66-0.066,1.46-0.481,2.087c-0.964,1.455-1.928,2.909-2.891,4.364c1.213-0.508,2.497-0.846,3.804-0.998 c0.216-0.025,0.449-0.043,0.639,0.063c0.546,0.306,0.21,1.143-0.2,1.613c-2.253,2.59-5.201,4.569-8.451,5.676 c-0.289,0.098,5.682,8.81,6.038,9.659c0.498,1.189,1.187,3.292,0.037,4.294c-1.584,1.379-5.054,0.154-6.634-0.648 c0.948,1.515,1.704,3.15,2.24,4.854c0.181,0.577,0.303,1.298-0.142,1.708c-0.396,0.363-1.03,0.266-1.516,0.035 s-0.936-0.572-1.468-0.648c1.427,1.451,2.854,2.904,4.28,4.355c0.285,0.291,0.581,0.602,0.675,0.996 c0.241,1.025-1.012,1.812-2.064,1.797c-1.054-0.014-2.101-0.453-3.136-0.256c1.67,2.782,5.24,4.06,8.32,3.164 c0.484,0.99-0.559,1.296-0.858,2.072c-0.5,1.292,0.713,1.165,0.892,2.199c0.079,0.469-0.382,0.861-0.84,0.984 c-0.457,0.125-0.953,0.096-1.391,0.273c0.063,0.52,0.126,1.04,0.188,1.56c-4.443,0.382-8.922,0.36-13.361-0.06 c0.842,0.004,1.343-1.031,1.2-1.861c-0.144-0.83-0.686-1.528-1.042-2.291c-0.106-0.227-0.198-0.473-0.174-0.723 c0.077-0.781,2.11-2.17,2.593-2.943c0.472-0.756,0.19-1.76-0.262-2.528c-0.451-0.769-1.068-1.466-1.292-2.329 c-0.578-2.223,1.266-3.35,2.171-5c0.857-1.564,1.404-4.232,0.863-5.959c-0.213-0.681-0.6-1.322-0.619-2.036 c-0.017-0.557,0.193-1.093,0.414-1.602c1.461-3.368,3.606-6.692,3.366-10.368c-0.052-0.791-0.216-1.572-0.258-2.364 C102.49,174.323,102.681,173.196,102.871,172.08z"/>
            </g>
          </g>
          <path opacity="0.21" fill="#332914" d="M112.953,161.5c0.08,0.374,0.59,0.392,0.958,0.318c1.063-0.21,2.128-0.42,3.192-0.631 c-0.664,1.727-1.438,3.406-2.317,5.028c0.141,0.344,0.644,0.054,0.851-0.253c1.333-1.977,5.201-6.254,5.065-8.598 C118.042,158.374,115.472,160.127,112.953,161.5z"/>
          <path opacity="0.21" fill="#332914" d="M133.21,152.442c-0.468,0.841-1.128,1.569-1.913,2.108 c0.807,0.56,1.612,1.119,2.418,1.679c0.106,0.074,0.223,0.163,0.242,0.292c0.027,0.188-0.155,0.33-0.315,0.424 c-1.372,0.809-2.814,1.492-4.306,2.038c-0.443,0.163-0.899,0.318-1.281,0.601c-0.414,0.305-0.716,0.74-1.001,1.174 c-0.752,1.14-1.449,2.318-2.089,3.528c0.15-1.868,0.299-3.737,0.448-5.606c0.162-2.011-0.661-2.666,1.367-3.627 C128.86,154.066,131.08,153.313,133.21,152.442z"/>
          <path fill="#BE1E2D" d="M95.065,209.227c-0.687,0.135-1.317,0.613-1.314,1.239c0.009,1.429,1.325,2.628,0.888,4.266 c-0.299,1.118-2.511,2.956-0.119,3.146c2.562,0.203,5.106,0.051,7.632,0.141c2.302,0.082,8.224,1.643,9.654-0.582 c0.481-0.748,0.412-1.76-0.167-2.463c-0.316-0.385-0.802-0.797-0.638-1.247c0.06-0.164,0.199-0.291,0.335-0.413 c0.438-0.393,0.877-0.785,1.316-1.178c0.403-0.361,0.802-0.994,0.354-1.324c-0.211-0.154-0.509-0.138-0.777-0.123 c-2.323,0.12-4.611-0.188-6.899-0.047c-2.629,0.163-5.228-0.174-7.737-0.98c-0.738-0.238-1.494-0.518-2.27-0.466 C95.236,209.199,95.15,209.211,95.065,209.227z"/>
          <path opacity="0.21" fill="#0C4C5B" d="M104.07,211.258c-0.011,0.025-0.016,0.053-0.014,0.082 c0.005,0.084,0.066,0.152,0.124,0.212c1.309,1.309,2.702,2.421,4.418,3.085c0.318,0.124,0.674,0.285,0.777,0.609 c-0.422,0.464-1.08,0.613-1.694,0.739c-1.076,0.222-2.152,0.441-3.229,0.663c0.26,0.231,0.562,0.415,0.888,0.539 c-0.574,0.338-1.184,0.471-1.84,0.52c-0.208,0.017-1.636,0.197-1.671,0.127c0.225,0.453,1.981,0.412,2.477,0.479 c0.961,0.131,1.925,0.261,2.895,0.323c1.406,0.091,3.663,0.226,4.551-1.154c0.48-0.745,0.411-1.757-0.168-2.461 c-0.317-0.386-0.801-0.796-0.638-1.248c0.06-0.163,0.2-0.29,0.335-0.413c0.438-0.393,0.878-0.784,1.316-1.178 c0.404-0.361,0.803-0.994,0.354-1.322c-0.211-0.155-0.51-0.139-0.778-0.125c-1.35,0.07-2.7-0.006-4.05-0.053 c-1.197-0.041-2.81-0.302-3.871,0.386C104.179,211.115,104.102,211.178,104.07,211.258z"/>
          <path fill="#BE1E2D" d="M118.04,209.479c-0.237,0.074-0.446,0.227-0.537,0.453c-0.134,0.332,0.015,0.705,0.162,1.031 c0.35,0.777,0.699,1.557,1.049,2.334c0.113,0.252,0.229,0.521,0.196,0.797c-0.074,0.6-0.787,0.895-1.063,1.435 c-0.229,0.447-0.115,1.009,0.158,1.431c0.272,0.424,0.683,0.736,1.084,1.039c2.025,1.533,6.031,0.52,8.451,0.545 c1.985,0.021,5.824,0.697,7.392-0.795c1.205-1.148,0.078-2.021-0.035-3.256c-0.134-1.445,1.421-2.293,0.793-3.924 c-0.05-0.128-0.113-0.257-0.222-0.342c-0.226-0.178-0.552-0.102-0.826-0.02c-1.056,0.313-2.119,0.599-3.189,0.855 c-0.594,0.143-1.218,0.276-1.808,0.119c-0.402-0.107-0.756-0.344-1.124-0.541c-1.695-0.906-3.418-0.837-5.19-0.311 c-1.62,0.482-2.348-0.007-3.974-0.648c-0.324-0.127-0.658-0.258-1.007-0.252C118.246,209.43,118.141,209.447,118.04,209.479z"/>
          <path opacity="0.19" fill="#0C4C5B" d="M125.697,211.422c-0.05,0.242,0.068,0.484,0.183,0.703 c0.396,0.758,0.79,1.516,1.185,2.273c0.294,0.564,0.597,1.201,0.416,1.813c-0.152,0.52-0.624,0.881-1.105,1.131 s-1.006,0.432-1.428,0.773c0.118-0.098,0.81,0.449,0.986,0.491c0.475,0.11,1.026-0.021,1.514-0.017 c1.984,0.022,5.824,0.699,7.392-0.793c1.206-1.148,0.078-2.021-0.035-3.257c-0.133-1.444,1.421-2.293,0.792-3.925 c-0.049-0.127-0.112-0.256-0.221-0.341c-0.227-0.177-0.551-0.102-0.826-0.02c-1.056,0.313-2.119,0.599-3.19,0.856 c-0.593,0.142-1.217,0.275-1.806,0.117c-1.16-0.309-1.688-0.722-2.98-0.443C126.198,210.866,125.773,211.047,125.697,211.422z"/>
        </g>
        <path fill="#EFB98F" d="M129.834,94.512c0.678-0.052,1.354-0.111,2.023-0.172c0.453-0.04,0.99-0.045,1.265,0.316 c0.188,0.249,0.184,0.588,0.169,0.899c-0.178,3.851-0.507,7.695-0.989,11.521c-0.262,2.067-0.122,4.133-0.22,6.207 c-0.05,1.047-0.983,3.553-0.614,4.479c-3.55-8.956-10.047-16.476-13.852-25.327C121.771,94.271,125.262,94.86,129.834,94.512z"/>
        <g>
          <path fill="#EFB98F" d="M158.427,118.223c-0.279,0.201-0.554,0.424-0.821,0.68c-1.295-3.301-4.19-5.66-6.967-7.865 c-0.983-0.779-2.047-1.132-3.096-1.732c-1.29-0.74-2.524-1.823-3.689-2.749l0.874,17.296c1.975,1.369,3.991,2.683,6.092,3.85 c1.817,1.009,4.049,1.613,5.596,2.969c1.903-0.964,3.807-1.929,5.709-2.895c0.013-0.006,0.025-0.013,0.038-0.02 C161.24,124.463,160.286,121.061,158.427,118.223z"/>
          <path fill="#FCB815" d="M140.254,95.894c0.881-0.577,2.053,0.28,2.447,1.271c0.726,1.819,0.922,3.511,2.229,5.081 c1.213,1.457,2.877,2.608,3.595,4.428c0.28,0.709,0.411,1.524,0.962,2.055c0.427,0.409,1.028,0.568,1.602,0.713 c-0.251,3.132-1.514,6.238-2.525,9.193c-0.721,2.105-1.367,4.28-2.243,6.328c-0.05,0.116-1.937-1.314-2.103-1.428 c-0.901-0.613-1.685-1.761-1.244-2.773"/>
        </g>
        <path fill="#F8A713" d="M130.11,92.875c0.081-0.203,0.873,2.548,0.892,2.688c0.229,1.65,0.337,3.24,0.378,4.907 c0.022-0.544,0.075-1.087,0.158-1.625c0.085-0.554,0.205-1.109,0.444-1.616c0.788-1.672,2.972-2.523,4.684-1.828 c0.078-0.35-0.156-0.684-0.378-0.965c-0.931-1.185-1.737-2.441-2.762-3.539c-0.321-0.344-0.646-0.684-0.977-1.02 c-0.285-0.29-0.678-0.602-1.056-0.451c-0.418,0.167-0.592,0.929-0.771,1.301C130.411,91.371,130.382,92.189,130.11,92.875z"/>
        <g>
          <path fill="#FCB815" d="M116.534,90.822c-0.35,0.159-0.693,0.357-1.031,0.52c-1.782,0.859-3.853,0.318-5.686,1.039 c-1.711,0.674-3.107,2.015-4.934,2.424c-0.659,0.148-1.354,0.165-1.978,0.423c-2.337,0.966-2.945,4.142-2.347,6.265 c0.572,2.037,1.384,3.994,2.03,6.006c1.438,4.476,4.059,10.326,3.42,15.115c-0.287,2.143-0.658,3.375-0.026,5.631 c0.628,2.243,2.517,5.906,1.292,8.181c-0.363,0.676-0.864,1.34-0.856,2.108c0.008,0.773,0.529,1.434,0.805,2.155 c0.288,0.753,0.308,1.577,0.323,2.382c0.004,0.184,0.008,0.366,0.012,0.549c0.013,0.602-0.007,1.172,0.1,1.758 c2.046,0.409,4.027,1.102,6.114,1.385c2.859,0.389,5.58-0.365,8.404-0.115c1.289,0.113,2.538,0.555,3.831,0.599 c1.151,0.04,2.286-0.234,3.413-0.472c2.328-0.49,4.754-0.326,7.11-0.599c1.197-0.138,2.272-0.437,3.41-0.8 c0.559-0.18,2.973-1.465,3.331-1.347c-0.494-0.163-0.61-0.833-0.456-1.329s0.485-0.933,0.582-1.443 c0.198-1.043-0.621-2.113-0.319-3.132c0.236-0.799,1.108-1.323,1.231-2.147c0.123-0.816-0.563-1.439-0.844-2.13 c-0.286-0.706-0.445-1.565-0.617-2.31c-0.37-1.595-0.492-3.216-0.317-4.845c0.286-2.659,1.477-5.13,1.652-7.812 c0.409-6.232-1.826-12.578-2.327-18.79c-0.018-0.212-0.027-0.426-0.037-0.64c-0.043-0.912-0.053-1.833-0.217-2.734 c-0.147-0.807-0.553-1.426-1.33-1.762c-0.158-0.068-0.328-0.121-0.502-0.122c-0.304-0.002-0.598,0.15-0.899,0.122 c-0.452-0.041-0.788-0.469-1.235-0.547c-0.406-0.069-0.813,0.162-1.222,0.115c-0.405-0.047-0.744-0.359-1.149-0.396 c-0.236-0.021-0.471,0.053-0.707,0.072c-0.404,0.035-0.804-0.092-1.209-0.132c-0.884-0.089-1.35,0.517-1.592,1.298 c-0.374,1.213-0.305,2.492-0.313,3.756c-0.008,1.551-0.056,3.104-0.208,4.648c-0.369,3.75-1.697,8.053-1.429,11.803 c-0.385-5.386-2.213-10.487-4.599-15.293c-0.912-1.84-1.536-3.996-2.726-5.678c-0.857-1.211-2.321-2.24-3.39-3.266 c-0.309-0.294-0.631-0.598-1.037-0.725C117.546,90.451,117.034,90.596,116.534,90.822z"/>
          <path opacity="0.49" fill="#FCB815" d="M113.271,104.189c0.283-1.679-0.193-3.452-1.173-4.83 c-0.712-1.004-1.802-2.055-2.981-2.404C110.654,99.266,112.029,101.697,113.271,104.189z"/>
        </g>
        <path fill="#F8A713" d="M127.248,105.428c-0.416-2.137-1.138-4.125-1.952-6.135c-0.67-1.654-1.112-3.465-2.331-4.841 c-0.76-0.856-1.749-1.472-2.597-2.241c-0.393-0.356-0.79-0.735-1.032-1.188c0.139-0.094,1.125-0.637,1.111-0.786 c-0.068-0.735-0.136-1.471-0.203-2.205c-1.231,0.159-2.502,0.136-3.53,0.816c-1.1,0.726-2.069,1.815-3.164,2.593 c2.617,2.785,5.146,5.652,7.581,8.597c0.779-0.825,1.559-1.652,2.337-2.478c1.243,2.465,2.474,4.938,3.693,7.416"/>
        <g>
          <path fill="#EFB98F" d="M96.354,111.787c-0.909,1.381-1.593,2.898-2.341,4.369c-0.756,1.488-1.516,2.986-1.984,4.586 c-0.333,1.137-0.515,2.313-0.671,3.486c-0.822,6.18-0.962,12.449-0.415,18.659c0.061,0.688,0.172,1.458,0.719,1.882 c0.469,0.361,1.115,0.355,1.706,0.334c1.085-0.041,2.17-0.082,3.255-0.123c0.286-0.01,0.591-0.027,0.819-0.197 c0.222-0.166,0.325-0.441,0.418-0.701c1.152-3.22,2.305-6.439,3.457-9.659c0.688-1.928,1.387-3.894,1.455-5.939 c0.056-1.664-0.308-3.333-0.119-4.987c0.263-2.294,1.552-4.323,2.808-6.262"/>
          <g>
            <path fill="#726658" d="M100.868,155.427c0.382-0.453,0.763-0.907,1.145-1.36c0.23-0.273,0.468-0.563,0.543-0.916 c0.062-0.29,0.006-0.591-0.051-0.881c-0.37-1.914-0.706-3.416-2.797-3.997c1.11,2.077,0.537,5.26,0.803,7.579 C100.63,155.71,100.749,155.568,100.868,155.427z"/>
            <path fill="#726658" d="M100.091,147.939c0.115,0.093,0.238,0.18,0.33,0.298c0.576,0.742,0.473,2.11,0.575,3.007 c0.147,1.309,0.429,2.567,0.558,3.891c0.018,0.182,0.029,0.388-0.088,0.527c-0.086,0.102-0.224,0.143-0.324,0.229 c-0.359,0.309-0.098,0.973-0.394,1.346c-0.099,0.123-0.243,0.195-0.386,0.263c-0.663,0.319-1.503,0.62-2.073,0.149 c-0.186-0.154-0.317-0.376-0.53-0.484c-0.881-0.449-2.473-0.045-3.411-0.011c-0.842,0.03-1.719-1.284-2.438-0.709 c-0.07,0.056-0.134,0.128-0.221,0.147s-0.175-0.02-0.255-0.059c-0.55-0.265-1.099-0.527-1.648-0.791 c-0.1-0.049-0.204-0.101-0.271-0.189c-0.091-0.122-0.094-0.287-0.096-0.441c-0.012-1.452-0.466-2.959-0.389-4.386 c0.112-2.108,0.447-3.809,1.854-5.337c-0.275-0.375-0.668-0.57-1.134-0.658c0.486-0.354,1.032-0.861,0.882-1.443 c-0.148-0.58-0.893-0.791-1.184-1.313c-0.45-0.81,0.4-1.73,1.217-2.166c2.87-1.534,6.537-1.453,9.336,0.205 c0.285,0.168,0.595,0.413,0.579,0.744c-0.039,0.784-1.685,0.715-1.601,1.496c0.021,0.186,0.151,0.339,0.284,0.469 c0.335,0.332,0.762,0.809,0.489,1.193c-0.104,0.146-0.283,0.217-0.435,0.313C97.939,145.096,99.226,147.248,100.091,147.939z"/>
          </g>
          <g>
            <path fill="#FCB815" d="M110.452,111.139c0.567-0.729,0.993-1.348,0.907-1.588c-0.042-0.117-0.131-0.216-0.151-0.34 c-0.049-0.289,0.275-0.477,0.458-0.703c0.346-0.428,0.185-1.066,0.006-1.59c-0.374-1.1-0.439-2.22-0.822-3.315 c-0.394-1.127-0.991-2.172-1.659-3.149c-0.773-1.133-1.696-2.154-2.649-3.139c-1.052-1.084-1.833-2.502-3.537-2.467 c-0.64,0.014-1.29,0.285-1.679,0.793c-0.164,0.215-0.277,0.463-0.413,0.695c-0.616,1.059-2.839,3.519-1.446,4.695 c-0.353-0.297-6.681,10.875-7.314,11.607c-0.282,0.323-0.593,0.763-0.389,1.141c0.115,0.214,0.359,0.316,0.582,0.413 c1.313,0.569,2.5,1.419,3.461,2.478c2.42,2.666,6.64,3.828,10.082,4.693c0.494-2.426,1.558-4.719,2.294-7.055 C108.397,113.62,109.59,112.25,110.452,111.139z"/>
          </g>
        </g>
        <g>
          <path opacity="0.17" fill="#E2B249" d="M124.533,117.068c-0.117,1.885,0.006,3.782,0.366,5.635 c0.396-0.74,1.64-0.779,2.082-0.065c0.166,0.269,0.22,0.589,0.264,0.901c0.601,4.35-0.299,8.877-2.444,12.702 c-1.692,3.018-5.936,6.753-9.385,7.448c1.88-3.252,3.576-6.614,5.077-10.064c-1.648-0.019-3.298-0.037-4.947-0.055 c1.636-2.729,3.438-5.414,4.618-8.324C121.332,122.367,122.777,119.643,124.533,117.068z"/>
          <path opacity="0.17" fill="#E2B249" d="M132.221,112.326c-0.569,2.535-0.722,5.604-0.218,8.164 c0.629,3.199,1.117,6.086,0.671,9.324c-0.514,3.729-1.459,7.379-2.399,11.018c-0.343,1.326-0.687,2.652-1.03,3.979 c1.427-1.387,3.016-2.607,4.724-3.627c-0.35,0.48,0.203,1.193,0.797,1.22c0.595,0.025,1.117-0.364,1.582-0.735 c0.339-0.271,0.679-0.543,1.018-0.814c0.207-0.165,0.417-0.334,0.561-0.556c0.203-0.317,0.247-0.708,0.325-1.077 c0.393-1.875,1.897-3.222,2.512-5.049c0.16-0.479,0.3-0.994,0.178-1.485c-0.122-0.49-0.597-0.927-1.094-0.833 c-0.17,0.032-0.331,0.123-0.503,0.113c-0.509-0.025-0.576-0.741-0.518-1.246c0.353-3.049-0.53-6.092-1.402-9.035 c-0.479-1.613-0.957-3.225-1.436-4.839c-0.566,0.759-1.133,1.517-1.7,2.276C134.13,116.738,133.416,114.395,132.221,112.326z"/>
          <path opacity="0.17" fill="#E2B249" d="M138.048,102.266c0.022,0.442,0.219,0.854,0.412,1.248 c0.556,1.138,1.136,2.307,2.084,3.129c-0.043-0.879-0.208-1.751-0.49-2.582c-0.134-0.396-0.298-0.824-0.173-1.227 c0.124-0.4,0.706-0.646,0.952-0.31c-0.649-0.891-0.521-2.397-1.292-3.362C139.003,99.973,137.997,101.19,138.048,102.266z"/>
          <path opacity="0.17" fill="#E2B249" d="M115.086,107.311c-0.668,2.568-1.335,5.137-2.002,7.705 c-0.031,0.119-0.061,0.25-0.005,0.36c0.063,0.119,0.204,0.166,0.332,0.201c0.636,0.177,1.281,0.327,1.885,0.575 c-0.188,1.854-2.11,3.145-3.199,4.482c-1.265,1.553-1.871,3.481-1.799,5.501c0.102,2.864,0.46,5.173-0.866,7.864 c-0.101,0.206-0.198,0.482-0.031,0.639c0.124,0.117,0.323,0.089,0.487,0.137c0.435,0.127,0.495,0.748,0.287,1.15 c-0.208,0.4-0.581,0.701-0.771,1.111c-0.238,0.513-0.152,1.129,0.093,1.639c0.517,1.07,1.631,1.921,2.344,2.879 c0.983,1.322,1.966,2.643,2.949,3.963c-2.059-0.178-4.082-0.734-5.942-1.635c-0.313-0.151-0.642-0.33-0.803-0.64 c-0.15-0.289-0.126-0.634-0.122-0.959c0.012-0.95-0.19-1.901-0.586-2.765c-0.164-0.357-0.364-0.719-0.371-1.112 c-0.009-0.479,0.271-0.909,0.489-1.337c0.884-1.725,0.854-3.809,0.297-5.666c-0.51-1.701-1.445-3.335-1.389-5.11 c0.041-1.251,0.573-2.394,0.897-3.581c0.28-1.025,0.101-1.705,0.078-2.697c-0.047-2.088,0.939-4.768,2.121-6.456 c0.708-1.011,1.672-1.878,2.496-2.796C112.701,109.933,114.807,108.364,115.086,107.311z"/>
          <path opacity="0.17" fill="#E2B249" d="M140.985,115.329c-0.339,0.408-0.636,0.827-0.572,1.162 c0.044,0.233,0.209,0.418,0.367,0.59c0.262,0.283,1.571,1.362,1.474,1.752c-0.084,0.331-1.033,0.656-1.264,0.946 c0.479,1.075,2.231,3.244,2.002,4.496c0.819-4.459,0.733-9.092-0.249-13.517c-0.12,1.218-0.441,2.429-0.96,3.534 C141.649,114.58,141.3,114.949,140.985,115.329z"/>
          <path opacity="0.14" fill="#E5542C" d="M104.698,107.672c0.875,0.777,0.817,2.251,0.211,3.261 c-0.605,1.011-1.612,1.683-2.556,2.37c-1.628,1.19-3.153,2.528-4.551,3.994c2.619-1.229,5.105-2.754,7.399-4.539 c-0.102,1.313-0.204,2.627-0.305,3.939c0.043-0.553,1.407-1.832,1.744-2.34c0.597-0.898,1.139-1.836,1.624-2.803 c0.706-1.404,2.288-4.207,2.012-5.787C108.655,105.656,106.248,107.104,104.698,107.672z"/>
          <path opacity="0.14" fill="#E5542C" d="M102.806,97.535c1.013,0.345,2.075,0.721,2.783,1.539 c0.705,0.814,0.946,1.94,1.525,2.852c-0.933-0.902-2.042-1.612-3.242-2.074c0.676,1.038,1.223,2.163,1.627,3.34 c-1.311-1.547-3.264-2.326-5.136-3.048c0.338-0.571,1.107-0.616,1.726-0.827c0.102-0.033,0.213-0.086,0.248-0.19 c0.031-0.093-0.012-0.195-0.054-0.284C101.869,97.984,101.292,97.021,102.806,97.535z"/>
        </g>
        <path fill="#BE1E2D" d="M113.723,107.815c0.174,1.243,0.229,2.468,0.074,3.572c-0.373,2.657-1.633,5.275-3.275,7.37 c-0.677,0.863-1.501,1.821-2.442,2.404c-0.866,0.537-1.704,0.477-2.595,0.888c-0.096,0.044-0.191,0.104-0.238,0.198 c-0.099,0.191,0.043,0.412,0.152,0.6c0.682,1.172,0.119,2.642,0.138,3.998c0.013,0.877,0.276,1.729,0.539,2.565 c0.836,2.665,2.22,5.506,0.269,8.05c-0.157,0.205-0.317,0.414-0.411,0.655c-0.251,0.636,0,1.362,0.362,1.942 c0.361,0.58,0.837,1.095,1.101,1.725c0.383,0.916,0.25,2.027-0.336,2.828c-0.229,0.312-0.534,0.609-0.555,0.996 c-0.123,2.313,6.734,2.559,8.246,2.75c3.764,0.475,7.803-0.297,11.459,0.762c4.275,1.239,8.574,2.295,12.854,3.437 c0.757-0.349,1.142-1.206,1.294-2.024c0.151-0.818,0.14-1.673,0.409-2.46c0.409-1.196,1.41-2.084,2.043-3.178 c1.281-2.212,0.819-4.237,0.669-6.501c-0.052-0.781,0.733-1.329,1.102-2.02c0.832-1.557-0.546-3.303-1.248-4.922 c-1.271-2.924-0.199-5.848,0.561-8.728c0.731-2.772,0.22-5.368-0.074-8.157c-0.316-3.004-0.633-6.01-0.949-9.015 c-0.285-2.706-0.576-5.442-1.473-8.012c-0.328-0.938-0.753-1.875-1.477-2.557c-0.394-0.372-0.865-0.655-1.362-0.87 c-0.972-0.417-2.097-0.568-3.092-0.209c1.894,2.048,2.38,5.003,2.6,7.783c0.122,1.549,0.05,3.104,0.076,4.656 c0.021,1.193,0.661,2.814-0.765,3.371c-0.513,0.201-1.08,0.198-1.632,0.186c-5.385-0.139-10.843-1.133-16.108,0.004 c-0.146,0.033-0.299,0.065-0.443,0.027c-0.51-0.133-0.744-2.461-0.882-2.984c-0.339-1.278-0.678-2.557-1.018-3.836 c-0.579-2.186-1.164-4.386-2.167-6.412c-0.93-1.877-3.382-6.301-6.071-4.682c-0.291,0.176-0.545,0.408-0.848,0.563 c-0.47,0.236-1.024,0.266-1.491,0.51c-0.504,0.264-0.867,0.778-0.946,1.342c0.623-0.649,1.715-0.115,2.37,0.501 c2.082,1.961,3.428,4.599,4.258,7.335C112.897,103.91,113.453,105.887,113.723,107.815z"/>
        <path opacity="0.32" fill="#004456" d="M106.738,146.244c1.555-1.854,2.795-3.972,3.653-6.234 c0.33-0.872,0.574-1.947-0.024-2.662c-0.203-0.242-0.496-0.434-0.574-0.739c-0.086-0.341,0.132-0.677,0.341-0.959 c2.349-3.181,5.054-6.208,6.415-9.92c0.436-1.188,0.547-2.849-0.594-3.394c-0.771-0.369-1.828-0.021-2.449-0.609 c0.325-1.789,2.087-2.938,2.893-4.568c0.836-1.694,0.556-3.703,0.232-5.566c-0.976-5.604-2.242-11.353-5.541-15.987 c0.653,0.717,1.493,1.262,2.413,1.569c-0.079-1.004-0.324-1.996-0.723-2.922c0.558,1.295,1.569,2.494,2.224,3.762 c0.69,1.34,1.164,2.592,1.566,4.049c0.847,3.07,1.56,6.18,2.136,9.313c0.017,0.09,0.036,0.185,0.097,0.252 c0.127,0.139,0.351,0.09,0.529,0.035c2.785-0.846,5.768-0.533,8.677-0.459c3.884,0.102,7.791-0.232,11.644,0.27 c0.265-0.911,0.292-1.872,0.316-2.821c0.063-2.394,0.117-4.802-0.173-7.185c-0.142-1.17-0.366-2.335-0.72-3.463 c-0.332-1.064-1.055-2.034-1.33-3.084c0.466-0.06,0.956,0.102,1.294,0.428c0.097-0.045,0.067-0.189,0.017-0.283 c-0.678-1.277-2.334-1.586-3.598-1.078c1.94,2.07,2.392,5.011,2.607,7.752c0.122,1.551,0.05,3.104,0.076,4.656 c0.021,1.193,0.661,2.814-0.765,3.372c-0.513,0.201-1.08,0.198-1.632,0.185c-5.385-0.138-10.843-1.133-16.108,0.006 c-0.146,0.031-0.299,0.064-0.443,0.026c-0.51-0.134-0.744-2.462-0.882-2.985c-0.339-1.277-0.678-2.557-1.018-3.836 c-0.579-2.185-1.164-4.386-2.167-6.412c-0.93-1.877-3.382-6.301-6.071-4.68c-0.291,0.174-0.545,0.406-0.848,0.561 c-0.47,0.237-1.024,0.267-1.491,0.51c-0.504,0.264-0.867,0.779-0.946,1.342c0.623-0.648,1.715-0.115,2.37,0.502 c2.082,1.961,3.428,4.599,4.258,7.335c0.498,1.642,1.054,3.618,1.323,5.548c0.174,1.243,0.229,2.467,0.074,3.571 c-0.373,2.657-1.633,5.276-3.275,7.37c-0.677,0.863-1.501,1.821-2.442,2.404c-0.866,0.537-1.704,0.477-2.595,0.889 c-0.096,0.043-0.191,0.103-0.238,0.197c-0.099,0.191,0.043,0.413,0.152,0.6c0.682,1.172,0.119,2.643,0.138,3.998 c0.013,0.877,0.276,1.729,0.539,2.566c0.836,2.664,2.22,5.506,0.269,8.049c-0.157,0.206-0.317,0.415-0.411,0.656 c-0.251,0.637,0,1.361,0.362,1.941c0.361,0.58,0.837,1.096,1.101,1.727c0.383,0.915,0.25,2.026-0.336,2.826 c-0.229,0.313-0.534,0.611-0.555,0.998c-0.006,0.102,0.003,0.199,0.023,0.293"/>
        <g>
          <path opacity="0.21" fill="#332914" d="M127.725,145.414c0.023-1.143,0.002-2.279-0.042-3.389 c0.542-0.024,1.178-0.007,1.499,0.431c0.205,0.279,0.114,0.665,0.211,0.997c0.858,2.964-0.06,6.333-1.483,8.75 c-0.535,0.91-1.619,1.585-1.99,2.378C127.237,151.763,127.658,148.564,127.725,145.414z"/>
          <path opacity="0.21" fill="#332914" d="M124.155,144.652c0.006,2.395,0.817,4.52,0.41,7.008 C124.366,149.322,124.161,147.002,124.155,144.652z"/>
        </g>
      </g>
      <g>
        <path fill="#DEBE80" d="M110.854,56.407c-0.774-1.377,0.506-3.421,0.92-4.751c0.414-1.329,0.947-2.633,1.706-3.853 c1.694-2.721,4.714-5.055,8.498-5.503c1.87-0.222,3.818,0.028,5.631,0.548c6.443,1.852,10.078,6.741,12.224,11.547 c0.107,0.241,0.212,0.5,0.13,0.741c-0.072,0.217-0.286,0.382-0.511,0.516c-0.89,0.534-2.03,0.741-3.143,0.919 c-6.927,1.105-14.066,1.539-21.207,1.287c-0.994-0.035-2.019-0.09-2.928-0.434C111.499,57.169,111.084,56.818,110.854,56.407z"/>
        <path fill="#BC9C66" d="M111.244,56.553c-0.454-0.147-0.618-0.476-0.511-1.302c0.119-0.928,0.331-1.848,0.612-2.749 c0.603-1.936,1.522-3.822,2.827-5.515c2.499-3.247,6.711-5.67,11.887-4.479c-0.962,0.493-1.264,1.161-1.701,1.954 c-0.937,1.7-1.951,3.07-2.098,4.993c-0.15,1.95,0.308,3.929,0.986,5.828c0.064,0.184,0.129,0.391,0.001,0.546 c-0.106,0.134-0.319,0.183-0.519,0.224c-3.105,0.622-6.378,0.923-9.627,0.682C112.255,56.671,111.64,56.682,111.244,56.553z"/>
        <path fill="#967E50" d="M159.575,54.328c0.166-0.631,0.084-1.276-0.354-1.915c-0.682-1-1.911-1.538-3.136-1.796 c-1.909-0.404-3.901-0.243-5.852-0.05c-10.313,1.019-20.533,2.895-30.864,3.733c-9.421,0.765-19.221,0.735-27.803,4.587 c-0.99,0.445-1.983,0.958-2.688,1.76c-0.705,0.802-1.067,1.955-0.646,2.914c0.257,0.584,0.769,1.029,1.294,1.416 c2.93,2.157,6.667,3.049,10.332,3.605c13.252,2.013,27.512,0.302,40.249-3.711c4.167-1.313,8.367-2.65,12.228-4.683 C154.159,59.227,158.901,56.882,159.575,54.328z"/>
      </g>
      <g>
        <defs>
          <path id="SVGID_6_" d="M141.5,70.258c-0.289-0.093-0.63-0.187-1-0.277c-0.036-0.009-0.073-0.018-0.11-0.027 c-0.201-0.049-0.409-0.097-0.628-0.144c-0.209-0.048-0.427-0.092-0.648-0.135c-0.018-0.003-0.037-0.007-0.057-0.01 c0.167-1.224,0.581-4.622,0.434-7.004c-0.059-0.943-0.229-1.84-0.458-2.675c0.504-0.728,0.923-1.383,1.243-1.977 c-5.71-4.531-27.871,0.199-28.889,2.815c-0.191,0.787-0.301,1.643-0.301,2.574c-0.004,1.882,0.439,4.064,1.548,6.577 c-3.843-0.691-3.626,7.826,0.9,7.578c0.039,0.257,0.073,0.509,0.113,0.761c0,0-0.001,0.006-0.001,0.007 c-0.001,0.005-0.002,0.015-0.003,0.031c-0.001,0.004-0.001,0.003-0.001,0.008c-0.003,0.029-0.008,0.073-0.013,0.13 c0,0,0,0,0,0.001c-0.005,0.057-0.011,0.129-0.019,0.213c0,0.001,0,0.002,0,0.003c-0.034,0.425-0.085,1.179-0.111,2.194 c0,0.005,0,0.01,0,0.015c-0.147,0.551-0.32,1.094-0.522,1.645c-0.099,0.279-0.203,0.567-0.058,0.841 c0.146,0.279,0.533,0.541,0.44,0.826c-0.086,0.27-0.597,0.463-0.754,0.724c-0.208,0.362,0.4,0.433,0.54,0.703 c0.324,0.629-0.273,1.298-0.731,1.869c-0.358,0.442-0.637,0.943-0.295,1.391c0.298,0.388,1.265,0.663,2.014,0.535 c0.021,0.044,0.042,0.088,0.064,0.128c-0.377,0.322-0.714,0.657-0.779,1.025c-0.099,0.512,0.44,0.93,1.315,1.172 c-0.689,0.589-1.258,0.973-1.264,1.739c0,0.513,0.308,1.047,1.038,1.415c0.736,0.368,1.947,0.527,2.881,0.291 c0.382-0.098,0.794-0.258,1.188-0.178c0.372,0.076,0.459,0.311,0.505,0.504c0.313,1.153,1.925,3.442,5.292,2.58 c0.473-0.121,0.83-0.303,1.113-0.518c0.317,0.656,0.792,1.354,1.992,1.658c3.367,0.863,4.979-1.426,5.293-2.58 c0.046-0.193,0.133-0.426,0.504-0.504c0.394-0.08,0.806,0.08,1.188,0.179c0.935,0.235,2.146,0.076,2.881-0.292 c0.731-0.367,1.038-0.901,1.038-1.414c-0.006-0.768-0.574-1.15-1.264-1.74c0.876-0.242,1.414-0.66,1.316-1.172 c-0.075-0.411-0.485-0.783-0.916-1.141c0.001-0.004,0.002-0.008,0.003-0.012c0.004-0.017,0.007-0.033,0.011-0.049 c0.767,0.217,1.877-0.065,2.201-0.487c0.341-0.448,0.063-0.948-0.296-1.39c-0.458-0.57-1.056-1.24-0.73-1.869 c0.139-0.27,0.748-0.34,0.539-0.703c-0.157-0.261-0.667-0.454-0.754-0.724c-0.031-0.096-0.047-0.461-0.059-0.922 c0-0.003,0-0.008,0.001-0.011c0.006-0.086,0.012-0.181,0.017-0.283c0.001-0.018,0.002-0.034,0.003-0.052 c0.006-0.111,0.011-0.229,0.014-0.353c0.001-0.01,0.001-0.021,0.001-0.031c0.003-0.109,0.005-0.223,0.005-0.338 c0-0.029,0-0.058,0-0.087c-0.001-0.128-0.004-0.257-0.01-0.386c0-0.013-0.001-0.025-0.001-0.039 c-0.007-0.115-0.015-0.229-0.025-0.343c-0.002-0.033-0.006-0.065-0.01-0.098c-0.013-0.125-0.028-0.248-0.049-0.365 c-0.001-0.009-0.004-0.018-0.006-0.027c-0.02-0.107-0.043-0.208-0.069-0.306c-0.009-0.029-0.017-0.057-0.025-0.085 c-0.03-0.1-0.064-0.195-0.105-0.28c-0.001-0.002-0.002-0.006-0.003-0.008l0.305-4.677c1.755-0.751,2.454-3.476,1.895-4.553 c0.474,0.069,0.978,0.135,1.13-0.065C141.979,71.423,141.948,70.401,141.5,70.258z"/>
        </defs>
        <clipPath id="SVGID_7_">
          <path d="M141.5,70.258c-0.289-0.093-0.63-0.187-1-0.277c-0.036-0.009-0.073-0.018-0.11-0.027 c-0.201-0.049-0.409-0.097-0.628-0.144c-0.209-0.048-0.427-0.092-0.648-0.135c-0.018-0.003-0.037-0.007-0.057-0.01 c0.167-1.224,0.581-4.622,0.434-7.004c-0.059-0.943-0.229-1.84-0.458-2.675c0.504-0.728,0.923-1.383,1.243-1.977 c-5.71-4.531-27.871,0.199-28.889,2.815c-0.191,0.787-0.301,1.643-0.301,2.574c-0.004,1.882,0.439,4.064,1.548,6.577 c-3.843-0.691-3.626,7.826,0.9,7.578c0.039,0.257,0.073,0.509,0.113,0.761c0,0-0.001,0.006-0.001,0.007 c-0.001,0.005-0.002,0.015-0.003,0.031c-0.001,0.004-0.001,0.003-0.001,0.008c-0.003,0.029-0.008,0.073-0.013,0.13 c0,0,0,0,0,0.001c-0.005,0.057-0.011,0.129-0.019,0.213c0,0.001,0,0.002,0,0.003c-0.034,0.425-0.085,1.179-0.111,2.194 c0,0.005,0,0.01,0,0.015c-0.147,0.551-0.32,1.094-0.522,1.645c-0.099,0.279-0.203,0.567-0.058,0.841 c0.146,0.279,0.533,0.541,0.44,0.826c-0.086,0.27-0.597,0.463-0.754,0.724c-0.208,0.362,0.4,0.433,0.54,0.703 c0.324,0.629-0.273,1.298-0.731,1.869c-0.358,0.442-0.637,0.943-0.295,1.391c0.298,0.388,1.265,0.663,2.014,0.535 c0.021,0.044,0.042,0.088,0.064,0.128c-0.377,0.322-0.714,0.657-0.779,1.025c-0.099,0.512,0.44,0.93,1.315,1.172 c-0.689,0.589-1.258,0.973-1.264,1.739c0,0.513,0.308,1.047,1.038,1.415c0.736,0.368,1.947,0.527,2.881,0.291 c0.382-0.098,0.794-0.258,1.188-0.178c0.372,0.076,0.459,0.311,0.505,0.504c0.313,1.153,1.925,3.442,5.292,2.58 c0.473-0.121,0.83-0.303,1.113-0.518c0.317,0.656,0.792,1.354,1.992,1.658c3.367,0.863,4.979-1.426,5.293-2.58 c0.046-0.193,0.133-0.426,0.504-0.504c0.394-0.08,0.806,0.08,1.188,0.179c0.935,0.235,2.146,0.076,2.881-0.292 c0.731-0.367,1.038-0.901,1.038-1.414c-0.006-0.768-0.574-1.15-1.264-1.74c0.876-0.242,1.414-0.66,1.316-1.172 c-0.075-0.411-0.485-0.783-0.916-1.141c0.001-0.004,0.002-0.008,0.003-0.012c0.004-0.017,0.007-0.033,0.011-0.049 c0.767,0.217,1.877-0.065,2.201-0.487c0.341-0.448,0.063-0.948-0.296-1.39c-0.458-0.57-1.056-1.24-0.73-1.869 c0.139-0.27,0.748-0.34,0.539-0.703c-0.157-0.261-0.667-0.454-0.754-0.724c-0.031-0.096-0.047-0.461-0.059-0.922 c0-0.003,0-0.008,0.001-0.011c0.006-0.086,0.012-0.181,0.017-0.283c0.001-0.018,0.002-0.034,0.003-0.052 c0.006-0.111,0.011-0.229,0.014-0.353c0.001-0.01,0.001-0.021,0.001-0.031c0.003-0.109,0.005-0.223,0.005-0.338 c0-0.029,0-0.058,0-0.087c-0.001-0.128-0.004-0.257-0.01-0.386c0-0.013-0.001-0.025-0.001-0.039 c-0.007-0.115-0.015-0.229-0.025-0.343c-0.002-0.033-0.006-0.065-0.01-0.098c-0.013-0.125-0.028-0.248-0.049-0.365 c-0.001-0.009-0.004-0.018-0.006-0.027c-0.02-0.107-0.043-0.208-0.069-0.306c-0.009-0.029-0.017-0.057-0.025-0.085 c-0.03-0.1-0.064-0.195-0.105-0.28c-0.001-0.002-0.002-0.006-0.003-0.008l0.305-4.677c1.755-0.751,2.454-3.476,1.895-4.553 c0.474,0.069,0.978,0.135,1.13-0.065C141.979,71.423,141.948,70.401,141.5,70.258z" transform="matrix(1, 0, 0, 1, 0, 0)" overflow="visible"/>
        </clipPath>
        <g clip-path="url(#SVGID_7_)">
          <g>
            <g>
              <g>
                <path fill="#EFB98F" d="M114.108,79.208c-0.044-0.337-0.082-0.665-0.115-0.979l-0.459-2.07 C113.435,76.205,113.872,78.041,114.108,79.208z M114.108,79.208c0.039,0.307,0.081,0.619,0.13,0.945 C114.278,80.117,114.213,79.729,114.108,79.208z M135.184,76.292c-2.864-0.009-4.408-0.765-5.069-2.652 c0.009,0.144,0.014,0.287,0.018,0.435c0.038,1.168,0.097,2.12,0.139,2.891l-4.896,0.544c0.116-1.536,0.989-1.118,0.989-1.118 s-0.074-0.83,0.252-4.347c0.065-0.7,0.121-1.309,0.174-1.835c-0.065,0.065-0.131,0.131-0.191,0.2v0.005 c0.104,4.917-1.408,6.704-6.077,6.721c-4.826,0.013-5.187-4.712-5.187-4.712c-0.487,0.031-1.244,0.222-1.635,0.122 c0.074,1.299,0.028,3.131,0.294,5.685l0.388,1.75l2.221,9.093l15.06-3.548c0.654,0.388,1.418,0.508,2.074,0.289 c0.607-0.26,1.053-0.646,1.399-1.107l1.888-0.444l-0.087-1.349l1.087,0.732l0.544-8.363c0.07-0.262,0.116-0.431,0.125-0.462 C138.005,75.626,136.914,76.296,135.184,76.292z"/>
              </g>
              <g>
                <path fill="#3F2922" d="M139.734,90.054c0.341-0.448,0.063-0.948-0.296-1.39c-0.458-0.57-1.056-1.24-0.73-1.869 c0.139-0.27,0.748-0.34,0.539-0.703c-0.157-0.261-0.667-0.454-0.754-0.724c-0.093-0.285-0.045-2.902-0.201-3.531 c-0.24,0.49-0.429,0.984-0.548,1.485c0.071,0.295,0.156,0.586,0.179,0.854c0.078,0.99,0.114,1.983-0.357,2.949 c-0.094,0.19-0.304,0.31-0.558,0.375c-0.137,0.893-0.525,1.973-1.843,2.582c-0.492,0.227-1.086,0.188-1.501,0.027 c-0.279,0.377-0.588,0.748-0.926,1.113c-0.658,0.711-2.657,0.089-2.002-0.619c0.021-0.021,0.038-0.044,0.059-0.066 c-0.099-0.234-0.159-0.484-0.394-0.704c-0.191-0.18-0.439-0.346-0.729-0.491c-0.954,0.284-1.76,0.684-2.55,1.097 c-0.08-0.031-0.162-0.061-0.241-0.092c-1.637-0.664-2.905-1.613-4.701-2.147c-0.289,0.146-0.537,0.311-0.729,0.491 c-0.234,0.221-0.295,0.47-0.394,0.705c0.021,0.022,0.039,0.044,0.06,0.066c0.654,0.707-1.345,1.33-2.002,0.619 c-0.338-0.366-0.647-0.737-0.927-1.114c-0.415,0.16-1.009,0.199-1.501-0.027c-1.317-0.608-1.706-1.689-1.842-2.582 c-0.254-0.065-0.465-0.185-0.558-0.375c-0.472-0.965-0.437-1.958-0.357-2.949c0.021-0.269,0.106-0.559,0.179-0.854 c-0.119-0.5-0.309-0.995-0.548-1.485c-0.157,0.629-0.355,1.24-0.585,1.865c-0.099,0.279-0.203,0.567-0.058,0.841 c0.146,0.279,0.533,0.541,0.44,0.826c-0.086,0.27-0.597,0.463-0.754,0.724c-0.208,0.362,0.4,0.433,0.54,0.703 c0.324,0.629-0.273,1.298-0.731,1.869c-0.358,0.442-0.637,0.943-0.295,1.391c0.342,0.444,1.564,0.742,2.33,0.451 c-0.47,0.386-0.95,0.788-1.031,1.237c-0.099,0.512,0.44,0.93,1.315,1.172c-0.689,0.589-1.258,0.973-1.264,1.739 c0,0.513,0.308,1.047,1.038,1.415c0.736,0.368,1.947,0.527,2.881,0.291c0.382-0.098,0.794-0.258,1.188-0.178 c0.372,0.076,0.459,0.311,0.505,0.504c0.313,1.153,1.925,3.442,5.292,2.58c0.473-0.121,0.83-0.303,1.113-0.518 c0.317,0.656,0.792,1.354,1.992,1.658c3.367,0.863,4.979-1.426,5.293-2.58c0.046-0.193,0.133-0.426,0.504-0.504 c0.394-0.08,0.806,0.08,1.188,0.179c0.935,0.235,2.146,0.076,2.881-0.292c0.731-0.367,1.038-0.901,1.038-1.414 c-0.006-0.768-0.574-1.15-1.264-1.74c0.876-0.242,1.414-0.66,1.316-1.172c-0.081-0.449-0.563-0.851-1.032-1.236 C138.169,90.797,139.392,90.499,139.734,90.054z"/>
                <g>
                  <path fill="#3F2922" d="M138.396,84.944c-0.363-0.369-0.998-2.142-0.998-2.142s-1.579,1.468-2.006,1.573 c-1.187,0.293-3.408-1.943-4.607-2.006c-1.382-0.069-4.313,0.074-4.313,0.074s-1.339,0.108-4.6,1.666 c-1.823,0.872-4.454,1.398-5.725,0.147c-0.824-0.812-1.596-3.134-1.767-4.278c-0.474-3.179-0.591-5.83-0.682-7.434 c-0.092-0.021-0.161-0.061-0.204-0.122c-0.53-0.704-0.5-1.843,0-2c0.008-0.005,0.017-0.005,0.026-0.009 c-0.439-4.704,0.474-6.412,0.517-6.495h-0.004c-1.018,1.317-1.904,3.461-1.4,6.056c0,0,0.057,0.574,0.156,1.491 c0.096,0.905,0.235,2.139,0.405,3.487c0.1,0.839,0.217,1.726,0.339,2.6c0.039,0.256,0.073,0.509,0.113,0.761 c0,0-0.122,1.125-0.157,3l0.248,0.004l0,0l-0.248-0.004c-0.021,1.039-0.018,2.309,0.048,3.738 c0.179,4.021,0.509,4.531,1.161,5.144c2.156,2.044,11.411,7.138,13.533,6.595c2.125-0.543,8.203-3.369,8.79-4.422 C137.613,91.32,138.396,84.944,138.396,84.944z"/>
                </g>
                <path fill="#3F2922" d="M137.389,85.56c0.145-0.678,1.005,0.078,1.007-0.616c0-0.122,0.285-2.54-0.225-3.591 c-0.179,0.456-0.524,1.56-0.773,1.449c-0.981-0.55-2.628-2.348-3.411-3.016c-1.23-1.048-2.876-1.708-3.789-1.343 c0.009,1.257-4.284,0.365-4.284,0.365c-2.86,0.074-4.021,3.77-7.425,3.552c-0.954-0.061-3.379-0.79-3.79-1.056 c-0.298,0.716,1.102,1.907,0.649,2.547c0.639,2.601,4.672,1.749,7.053,0.609c3.261-1.556,4.505-2.036,4.505-2.036 s3.025,0.228,4.407,0.297c1.292,0.068,2.289,2.121,5.21,2.007C136.512,84.671,137.157,86.646,137.389,85.56z"/>
              </g>
              <path fill="#493731" d="M140.765,54.887c0.735,1.367-0.39,3.266-2.514,6.2l-3.627-7.173 C134.624,53.914,139.533,52.6,140.765,54.887z"/>
              <path fill="#3F2922" d="M132.601,54.946c0,0,5.245,4.712,5.999,8.973c0.392,2.217-0.442,6.29-0.442,6.29l0.834-0.083 c0,0,0.683-4.514,0.499-7.467c-0.281-4.519-3.055-8.057-3.055-8.057L132.601,54.946z"/>
              <path fill="#D89C73" d="M140.37,72.123c0.591,1.139-0.223,4.122-2.204,4.665c0.287-1.096,0.505-1.896,0.525-1.97 c0-0.004,0-0.004,0-0.004c1.039-1.222,1.157-2.756,1.157-2.756C140,72.066,140.184,72.092,140.37,72.123z"/>
              <path fill="#EFB98F" d="M138.344,69.169l0.223-1.629c0.136-1.217,0.211-2.605,0.034-3.615 c-0.062-0.279-0.128-0.556-0.199-0.83c-0.933-3.109-3.888-6.279-5.183-7.559c-2.569,1.243-5.153,3.17-6.13,2.127 c-0.3-0.322-0.695-0.539-1.148-0.691l-0.004-0.005c-0.843-0.283-1.887-0.339-2.882-0.426 c-0.448-0.044-0.887-0.091-1.291-0.166c-0.748-0.144-1.383-0.387-1.761-0.878h-0.005c-0.513,0.061-0.682,0.317-0.682,0.317 c0.204,0.252-1.27,0.748-2.113,2.487c-0.126,0.265-0.239,0.556-0.33,0.882c-0.044,0.148-0.078,0.292-0.113,0.422 c-0.552,2.078-0.378,2.352-1.6,3.2c-0.353,0.248-0.748,0.621-1.126,1.113h0.004c-0.043,0.083-0.956,1.791-0.517,6.495 c3.112-0.978,10.737-1.987,13.007-1.482c0,0,0.173-0.065,0.443-0.152v-0.004c0.187-1.166,0.47-1.9,1.078-2.791 c0.005-0.009,0.009-0.022,0.018-0.03c0.082-0.183,0.19-0.283,0.325-0.283c0.448,0,0.878,1.122,1.195,2.865 c0.048,0.03,0.088,0.069,0.117,0.117c0.049,0.074,0.079,0.161,0.084,0.265c1.455-0.323,5.359,0.046,8.495,0.603 C138.303,69.414,138.323,69.296,138.344,69.169z"/>
              <path fill="#60473E" d="M139.137,52.225c0.694,0.912,1.226,1.835,1.628,2.663c-0.515-0.372-1.104-0.53-1.734-0.546 c-1.093-0.021-2.328,0.393-3.574,0.97c-3.246,1.501-6.594,4.084-7.829,2.763c-0.366-0.392-0.849-0.657-1.4-0.843l-0.005-0.005 c-1.241-1.278,0.393-3.013,3.437-4.418C132.708,51.402,136.813,50.044,139.137,52.225z"/>
              <path fill="#544038" d="M136.628,49.646c1.007,0.791,1.835,1.681,2.509,2.578c-2.323-2.18-6.429-0.822-9.479,0.583 c-3.044,1.405-4.678,3.14-3.437,4.418c-1.029-0.345-2.302-0.414-3.517-0.52v-0.005 C121.262,54.404,129.191,47.806,136.628,49.646z"/>
              <path fill="#493731" d="M135.186,48.66c0.514,0.303,0.997,0.631,1.442,0.986c-7.437-1.84-15.366,4.758-13.923,7.054v0.005 c-0.546-0.053-1.082-0.111-1.575-0.201c-2.079-1.788,2.705-8.746,13.546-8.121h0.005 C134.852,48.469,135.021,48.565,135.186,48.66z"/>
              <path fill="#544038" d="M134.676,48.384c-10.841-0.625-15.625,6.333-13.546,8.121c-0.912-0.175-1.688-0.472-2.148-1.072 c-0.037-0.047-0.074-0.096-0.106-0.143c-0.021-0.037-0.047-0.074-0.073-0.106c-0.012-0.016-0.016-0.026-0.021-0.042 c-1.135-1.798,1.994-6.428,10.799-7.972h0.005C131.355,47.234,133.116,47.589,134.676,48.384z"/>
              <path fill="#EFB98F" d="M129.836,69.762c0.039,0.1,0.044,0.222-0.004,0.365c-0.021-0.161-0.043-0.321-0.065-0.478 C129.797,69.684,129.818,69.718,129.836,69.762z"/>
              <path fill="#FCBE92" d="M128.393,65.671c0.448,0,0.878,1.122,1.195,2.865c-0.36-0.261-1.143-0.152-1.829,0.013 c0.021-1.209,0.1-2.113,0.291-2.565c0.005-0.009,0.009-0.022,0.018-0.03C128.149,65.771,128.258,65.671,128.393,65.671z"/>
              <path fill="#FCBE92" d="M127.759,68.549c0.303-0.073,0.623-0.133,0.919-0.157c-0.2-0.785-0.421-1.567-0.648-2.351 C127.854,66.509,127.779,67.386,127.759,68.549z"/>
              <path fill="#453428" d="M129.588,68.536c-0.317-1.743-0.747-2.865-1.195-2.865c-0.135,0-0.243,0.1-0.325,0.283 c-0.009,0.008-0.013,0.021-0.018,0.03c-0.008,0.017-0.014,0.039-0.021,0.058c0.228,0.784,0.448,1.566,0.648,2.351 C129.053,68.362,129.387,68.391,129.588,68.536z"/>
              <path fill="#60473E" d="M118.875,50.251c1.83-1.554,6.312-3.235,10.704-3.082c-8.805,1.543-11.934,6.174-10.799,7.972 c-0.812-1.22-1.512-1.925-1.475-2.716C117.327,51.832,117.768,51.19,118.875,50.251z"/>
              <path fill="#D89C73" d="M128.05,65.984c-0.191,0.452-0.271,1.356-0.291,2.565c-0.296,0.074-0.574,0.157-0.787,0.23v-0.004 C127.158,67.61,127.441,66.875,128.05,65.984z"/>
              <path fill="#DBBFB1" d="M115.334,72.422c-0.487,0.031-1.244,0.222-1.635,0.122c0.001,0.026,0.005,0.056,0.006,0.082 c0.57,0.167,1.139,0.27,1.708,0.302C115.35,72.619,115.334,72.422,115.334,72.422z"/>
              <path fill="#60473E" d="M119.51,55.879c-0.939-1.128-1.723-2.601-1.731-2.618c-0.043-0.079-0.142-0.109-0.222-0.067 c-0.076,0.041-0.105,0.134-0.07,0.212c-0.825,0.4-4.951,2.613-6.1,7.418c2.517-3.639,5.816-2.521,5.816-2.521 C117.854,56.959,119.397,55.916,119.51,55.879z"/>
              <path fill="#544038" d="M117.203,58.303c-0.126,0.265-0.239,0.556-0.33,0.882c-0.044,0.148-0.078,0.292-0.113,0.422h-0.005 c0,0-3.412,0.469-5.669,3.791c0-0.931,0.109-1.787,0.301-2.574C113.903,57.185,117.203,58.303,117.203,58.303z"/>
              <path fill="#544038" d="M116.755,59.607h0.005c-0.552,2.078-0.378,2.352-1.6,3.2c-0.353,0.248-0.748,0.621-1.126,1.113 c-1.018,1.317-1.904,3.46-1.4,6.055c-1.108-2.512-1.552-4.694-1.548-6.577C113.343,60.076,116.755,59.607,116.755,59.607z"/>
              <path fill="#D89C73" d="M113.534,77.552c-4.526,0.248-4.743-8.269-0.9-7.578c0,0,0.057,0.574,0.156,1.492h-0.004 c-1.278-0.074-1.713,1.048-1.456,2.282c0.252,1.23,1.117,1.5,1.86,1.204h0.005C113.295,75.792,113.412,76.679,113.534,77.552z "/>
              <path fill="#B37B56" d="M113.195,74.953h-0.005c-0.743,0.295-1.608,0.026-1.86-1.204c-0.257-1.234,0.178-2.356,1.456-2.282 h0.004C112.886,72.371,113.025,73.605,113.195,74.953z"/>
              <path fill="#3F2922" d="M138.984,69.822c-0.021-0.178-0.109-0.509-0.274-0.891c-0.282-0.669-0.817-1.5-1.678-1.943 c-0.176-0.09-0.378-0.176-0.599-0.258c-0.395-0.002-0.624-0.06-0.335-0.116c-0.321-0.105-0.669-0.2-1.022-0.283 c-0.727,0.095-1.217,0.035-0.722-0.153c-0.199-0.038-0.394-0.07-0.584-0.098c-0.689,0.246-1.053,0.242-0.538-0.07 c-0.712-0.075-1.257-0.062-1.378,0.069c-0.335,0.365-0.943,2.03-0.509,2.104c0.436,0.07,4.6,0.252,5.617,0.687 c0.504,0.217,1.004,0.552,1.378,0.8l-0.004,0.017C138.559,69.73,138.776,69.774,138.984,69.822z"/>
              <g>
                <path fill="#60473E" d="M119.855,56.668c-0.042,0-0.083-0.016-0.115-0.048c-1.164-1.164-2.207-3.124-2.251-3.206 c-0.042-0.08-0.012-0.178,0.067-0.22c0.08-0.042,0.179-0.011,0.222,0.067c0.01,0.021,1.063,2,2.192,3.128 c0.064,0.064,0.064,0.167,0,0.231C119.938,56.652,119.897,56.668,119.855,56.668z"/>
              </g>
              <path fill="#3F2922" d="M123.646,66.032c-0.104-0.113-0.44-0.166-0.91-0.171c0.2,0.406,0.034,0.397-0.249,0.001 c-0.292,0.007-0.622,0.03-0.975,0.066c0.471,0.438,0.14,0.441-0.49,0.058c-0.99,0.129-2.082,0.351-2.96,0.632 c0.587,0.13,0.405,0.224-0.266,0.159c-0.054-0.005-0.11-0.006-0.165-0.011c-0.022,0.009-0.049,0.017-0.071,0.026 c-0.266,0.103-0.531,0.234-0.793,0.38c0.602,0.03,0.381,0.139-0.319,0.187c-0.489,0.303-0.952,0.656-1.351,1.002 c0.078-0.021,0.154-0.049,0.234-0.068c0.589-0.142,0.619,0.001,0.063,0.208c-0.283,0.106-0.562,0.227-0.834,0.358 c-0.534,0.535-0.84,0.972-0.73,1.049c0.251,0.179,2.852-1.161,4.795-1.452c1.942-0.287,5.486,0.435,5.564-0.217 C124.302,67.31,124.046,66.467,123.646,66.032z"/>
              <g>
                <path fill="#4F473E" d="M126.955,56.265c-0.057-0.035-0.099-0.14-0.086-0.213c0.009-0.078,0.033-0.153,0.067-0.219 c0.066-0.134,0.154-0.251,0.245-0.364c0.188-0.221,0.399-0.413,0.615-0.6c0.438-0.368,0.914-0.679,1.395-0.979 c0.976-0.582,2.034-1.008,3.108-1.358c1.075-0.348,2.188-0.604,3.322-0.665c1.122-0.052,2.312,0.107,3.256,0.746 l-0.023,0.037c-0.964-0.581-2.126-0.672-3.218-0.566c-1.104,0.102-2.183,0.395-3.223,0.777 c-1.04,0.388-2.032,0.89-3.008,1.408c-0.492,0.253-0.968,0.538-1.427,0.842c-0.229,0.153-0.454,0.313-0.655,0.496 c-0.103,0.089-0.201,0.184-0.278,0.291c-0.071,0.104-0.147,0.232-0.058,0.34L126.955,56.265z"/>
              </g>
              <g>
                <path fill="#4F473E" d="M123.494,55.554c-0.111-0.107-0.109-0.283-0.088-0.416c0.022-0.14,0.065-0.272,0.115-0.401 c0.107-0.252,0.246-0.486,0.4-0.706c0.309-0.441,0.678-0.83,1.07-1.188c0.788-0.72,1.736-1.222,2.685-1.669 c0.953-0.444,1.949-0.786,2.966-1.026c1.02-0.23,2.058-0.354,3.093-0.378l0.005,0.064c-1.026,0.111-2.037,0.32-3.013,0.628 c-0.979,0.297-1.924,0.691-2.816,1.177c-0.896,0.484-1.702,1.098-2.5,1.703c-0.399,0.305-0.78,0.631-1.137,0.982 c-0.175,0.177-0.347,0.359-0.493,0.557c-0.137,0.191-0.307,0.418-0.232,0.637L123.494,55.554z"/>
              </g>
              <g>
                <path fill="#4F473E" d="M119.803,53.54c-0.088-0.321,0.016-0.66,0.146-0.953c0.132-0.299,0.321-0.564,0.525-0.81 c0.416-0.491,0.943-0.854,1.466-1.194c1.048-0.686,2.175-1.215,3.324-1.67l0.018,0.04c-1.095,0.568-2.166,1.186-3.142,1.916 c-0.484,0.37-0.923,0.788-1.346,1.204c-0.405,0.423-0.839,0.865-0.948,1.465L119.803,53.54z"/>
              </g>
              <g>
                <path fill="#4F473E" d="M125.03,54.907c0.337-0.567,0.801-1.04,1.294-1.467c0.5-0.425,1.071-0.751,1.646-1.055 c0.574-0.307,1.169-0.571,1.776-0.797c0.611-0.217,1.233-0.394,1.864-0.529l0.011,0.042 c-1.226,0.386-2.397,0.917-3.478,1.585c-0.54,0.337-1.036,0.73-1.552,1.096c-0.516,0.368-1.021,0.75-1.529,1.152 L125.03,54.907z"/>
              </g>
              <g>
                <path fill="#4F473E" d="M121.869,54.237c0.186-0.644,0.572-1.205,1.008-1.704c0.442-0.499,0.989-0.888,1.545-1.239 c1.111-0.712,2.343-1.198,3.602-1.512l0.012,0.042c-1.219,0.433-2.387,1.006-3.417,1.758 c-0.514,0.379-0.971,0.82-1.429,1.254c-0.456,0.437-0.89,0.899-1.28,1.419L121.869,54.237z"/>
              </g>
              <g>
                <path fill="#4F473E" d="M128.588,57.292c0.21,0.037,0.415-0.081,0.607-0.181c0.196-0.102,0.389-0.218,0.578-0.338 c0.38-0.241,0.764-0.479,1.151-0.714c0.777-0.469,1.605-0.86,2.446-1.214c0.841-0.356,1.709-0.657,2.603-0.85 c0.895-0.186,1.816-0.261,2.72-0.157l-0.003,0.043c-0.903-0.045-1.803,0.088-2.665,0.325 c-0.866,0.231-1.702,0.566-2.511,0.956c-0.809,0.391-1.575,0.859-2.377,1.276c-0.402,0.207-0.803,0.419-1.223,0.604 c-0.21,0.091-0.422,0.18-0.644,0.253c-0.217,0.054-0.468,0.15-0.699,0.038L128.588,57.292z"/>
              </g>
              <g>
                <path fill="#4F473E" d="M116.768,54.78c-0.366,0.265-0.71,0.51-1.043,0.774c-0.329,0.266-0.685,0.5-0.992,0.799 c-0.617,0.594-1.123,1.312-1.518,2.094l-0.04-0.017c0.143-0.417,0.32-0.825,0.533-1.217c0.222-0.387,0.478-0.758,0.771-1.1 c0.294-0.338,0.604-0.683,0.998-0.917c0.389-0.234,0.819-0.416,1.275-0.458L116.768,54.78z"/>
              </g>
              <path fill="#4F473E" d="M116.292,60.123c-0.479,0.101-0.949,0.249-1.415,0.417c-0.464,0.177-0.918,0.388-1.351,0.648 c-0.431,0.255-0.903,0.501-1.219,0.922c-0.051,0.067-0.1,0.137-0.146,0.208c0.06-0.251,0.123-0.5,0.186-0.75 c0.145-0.569,0.321-1.13,0.538-1.696c0.292-0.146,0.557-0.277,0.827-0.403c0.269-0.121,0.517-0.29,0.799-0.402 c0.561-0.223,1.172-0.348,1.795-0.404V58.62c-0.625-0.07-1.273-0.047-1.902,0.117c-0.312,0.081-0.641,0.161-0.911,0.356 c-0.268,0.19-0.516,0.431-0.641,0.751l0.017,0.014l-0.019-0.012c-0.428,0.452-0.709,1.016-0.919,1.596 c-0.207,0.584-0.274,1.208-0.3,1.82c-0.063,1.229,0.152,2.454,0.574,3.585l0.042-0.014c-0.284-1.097-0.385-2.231-0.282-3.34 c0.347-0.276,0.661-0.527,0.971-0.783c0.354-0.277,0.627-0.655,0.989-0.953c0.357-0.297,0.745-0.57,1.146-0.829 c0.397-0.266,0.82-0.495,1.25-0.725L116.292,60.123z"/>
              <g>
                <path fill="#FCBE92" d="M130.318,78.205c0.01,1.256-0.19,1.708-1.057,1.773c-0.077,0.004-0.151,0.004-0.225,0 c-0.019,0-0.035,0-0.054-0.004c-1.208-0.143-1.208-2.03-1.208-6.19c0-1.526-0.026-2.956-0.026-4.182 c0.835-0.339,1.727-0.318,2.018,0.043c0,0,0.004,0,0,0.004c0.022,0.157,0.044,0.317,0.065,0.478 c0.13,1.065,0.23,2.257,0.282,3.509v0.004c0.009,0.144,0.014,0.287,0.018,0.435C130.193,75.97,130.311,77.296,130.318,78.205 z"/>
                <path fill="#453428" d="M130.132,74.075c-0.004-0.148-0.009-0.292-0.018-0.435v-0.004c-0.052-1.252-0.152-2.443-0.282-3.509 c-0.021-0.161-0.043-0.321-0.065-0.478c0.004-0.004,0-0.004,0-0.004c-0.151-0.188-0.468-0.282-0.853-0.283 c0.666,2.906,1.2,9.78-0.98,9.06c0.153,0.983,0.454,1.481,1.05,1.552c0.019,0.004,0.035,0.004,0.054,0.004 c0.073,0.004,0.147,0.004,0.225,0c0.866-0.065,1.066-0.517,1.057-1.773C130.311,77.296,130.193,75.97,130.132,74.075z"/>
                <path fill="#D89C73" d="M127.775,73.783c0,4.161,0,6.047,1.208,6.19c-2.438-0.161-3.599-1.517-3.599-1.517 c-0.218-2.643,0.979-2.065,0.979-2.065s-0.074-0.83,0.252-4.347c0.065-0.7,0.121-1.309,0.174-1.835 c0.278-0.265,0.617-0.469,0.96-0.608C127.749,70.827,127.775,72.257,127.775,73.783z"/>
              </g>
              <g>
                <path fill="#2E2825" d="M139.209,70.753c-0.391,2.326-0.844,4.734-4.834,4.513c-4.456-0.244-3.752-4.339-3.717-5.504 C130.658,69.762,135.54,69.801,139.209,70.753z"/>
                <path fill="#2E2825" d="M125.559,69.871c0.039,1.296,0.821,5.852-4.134,6.125c-4.438,0.248-4.948-2.435-5.378-5.025 C120.129,69.91,125.559,69.871,125.559,69.871z"/>
                <g>
                  <path fill="#FFCC00" d="M141.5,70.258c-0.289-0.093-0.63-0.187-1-0.277c-0.036-0.009-0.073-0.018-0.11-0.027 c-0.201-0.049-0.409-0.097-0.628-0.144c-0.209-0.048-0.427-0.092-0.648-0.135c-3.238-0.639-7.738-1.108-9.324-0.756 c-0.005-0.104-0.035-0.191-0.084-0.265c-0.029-0.048-0.069-0.087-0.117-0.117c-0.36-0.261-1.143-0.152-1.829,0.013 c-0.296,0.074-0.574,0.157-0.787,0.23c-0.271,0.087-0.443,0.152-0.443,0.152c-2.27-0.504-9.895,0.504-13.007,1.482 c-0.01,0.004-0.019,0.004-0.026,0.009c-0.5,0.156-0.53,1.295,0,2c0.043,0.061,0.112,0.101,0.204,0.122 c0.391,0.101,1.147-0.091,1.635-0.122c0,0,0.36,4.726,5.187,4.712c4.669-0.017,6.181-1.804,6.077-6.721v-0.005 c0.061-0.069,0.126-0.134,0.191-0.2c0.278-0.265,0.617-0.469,0.96-0.608c0.835-0.339,1.727-0.318,2.018,0.043 c0,0,0.004,0,0,0.004c0.03,0.035,0.052,0.069,0.069,0.113c0.039,0.1,0.044,0.222-0.004,0.365 c0.13,1.065,0.23,2.257,0.282,3.509v0.004c0.661,1.887,2.205,2.644,5.069,2.652c1.73,0.004,2.821-0.666,3.508-1.474 c0-0.004,0-0.004,0-0.004c0.132-0.155,0.248-0.314,0.353-0.476c0.047-0.073,0.09-0.146,0.132-0.219 c0.016-0.027,0.03-0.055,0.045-0.083c0.026-0.047,0.052-0.095,0.076-0.143c0.016-0.031,0.029-0.062,0.045-0.092 c0.021-0.044,0.041-0.087,0.061-0.13c0.014-0.032,0.027-0.063,0.041-0.094c0.018-0.042,0.034-0.084,0.051-0.125 c0.012-0.03,0.023-0.06,0.035-0.089c0.016-0.042,0.03-0.084,0.045-0.125c0.01-0.027,0.02-0.053,0.027-0.08 c0.016-0.044,0.028-0.086,0.041-0.128c0.007-0.022,0.015-0.045,0.021-0.067c0.017-0.057,0.032-0.111,0.046-0.164 c0.002-0.006,0.004-0.014,0.006-0.02c0.015-0.058,0.027-0.112,0.039-0.164c0.004-0.019,0.008-0.035,0.012-0.052 c0.007-0.034,0.014-0.067,0.021-0.098c0.004-0.019,0.007-0.036,0.01-0.053c0.005-0.027,0.01-0.053,0.014-0.077 c0.003-0.017,0.006-0.032,0.008-0.048c0.004-0.022,0.007-0.042,0.01-0.062c0.002-0.013,0.004-0.025,0.006-0.037 c0.002-0.018,0.004-0.032,0.006-0.047c0.001-0.009,0.002-0.019,0.003-0.026c0.002-0.012,0.002-0.021,0.003-0.03 c0.001-0.006,0.002-0.011,0.002-0.015c0.001-0.009,0.002-0.014,0.002-0.014c0.151,0.008,0.335,0.035,0.521,0.065 c0.474,0.069,0.978,0.135,1.13-0.065C141.979,71.423,141.948,70.401,141.5,70.258z M121.425,75.996 c-4.438,0.248-4.948-2.435-5.378-5.025c4.082-1.061,9.512-1.1,9.512-1.1C125.598,71.167,126.38,75.722,121.425,75.996z M134.375,75.266c-4.456-0.244-3.752-4.339-3.717-5.504c0,0,4.882,0.039,8.551,0.991 C138.818,73.079,138.365,75.487,134.375,75.266z"/>
                </g>
                <path fill="#FFCC00" d="M122.239,70.391c0.546-0.057,1.228,2.197,1.524,5.038l0.796-0.083 c-0.32-3.058-1.381-5.451-2.363-5.348c-0.562,0.059-0.979,0.852-1.187,2.052c-0.449-1.131-1.022-1.822-1.579-1.763 c-0.983,0.103-1.526,2.659-1.206,5.718l0.796-0.083c-0.297-2.84-0.1-5.185,0.445-5.241c0.546-0.057,1.21,2.021,1.483,4.643 l0.791-0.082c-0.274-2.622-0.051-4.792,0.494-4.85"/>
                <path fill="#FFCC00" d="M136.271,70.396c0.499,0.053,0.681,2.203,0.404,4.806l0.728,0.077 c0.298-2.801-0.196-5.148-1.097-5.244c-0.515-0.054-1.041,0.577-1.455,1.613c-0.186-1.1-0.567-1.827-1.079-1.882 c-0.9-0.095-1.874,2.093-2.171,4.895l0.729,0.078c0.276-2.603,0.9-4.666,1.4-4.612c0.499,0.053,0.698,2.042,0.442,4.444 l0.726,0.076c0.255-2.401,0.868-4.304,1.368-4.251"/>
              </g>
            </g>
          </g>
        </g>
        <g clip-path="url(#SVGID_7_)">
          <g>
            <path fill="#F05F57" d="M124.115,83.079c0.331,0.29,5.771,1.082,8.408,0.032c-0.313,0.467-1.349,1.845-3.864,1.94 C125.595,85.167,124.174,83.384,124.115,83.079z"/>
          </g>
          <path fill="#F1F2F2" d="M132.523,83.111c-0.09,0.133-0.24,0.341-0.464,0.572c-0.805,0.367-1.948,0.668-3.544,0.655 c-1.778-0.015-3.136-0.382-4.105-0.816c-0.183-0.203-0.28-0.368-0.295-0.442C124.446,83.369,129.887,84.161,132.523,83.111z"/>
        </g>
      </g>
    </g>
  </g>
  <circle opacity="0.2" fill="none" stroke="#191326" stroke-width="2.837" enable-background="new    " cx="125.5" cy="72.5" r="42.082"/>
</svg>